<svg width="26" height="26" viewBox="0 0 26 26" fill="none" xmlns="http://www.w3.org/2000/svg">
<g clip-path="url(#clip0_251_313)">
<path d="M22.0101 4.73428C20.3245 3.9606 18.5456 3.40892 16.718 3.09303C16.7013 3.08978 16.6841 3.09192 16.6687 3.09912C16.6533 3.10632 16.6406 3.11823 16.6324 3.13311C16.4049 3.53936 16.1514 4.06911 15.9738 4.48728C14.0036 4.18805 11.9996 4.18805 10.0295 4.48728C9.83178 4.02394 9.60863 3.57186 9.36108 3.13311C9.35255 3.11856 9.3398 3.10694 9.32452 3.09978C9.30924 3.09263 9.29215 3.09027 9.2755 3.09303C7.44775 3.40826 5.66879 3.95997 3.98342 4.73428C3.96915 4.74027 3.95705 4.75047 3.94875 4.76353C0.577419 9.79995 -0.346665 14.7118 0.107252 19.5619C0.108355 19.5739 0.111902 19.5856 0.117676 19.5962C0.123451 19.6068 0.131331 19.6161 0.140835 19.6236C2.1034 21.0777 4.29879 22.1876 6.63325 22.9061C6.64971 22.9109 6.66722 22.9105 6.68347 22.9051C6.69973 22.8997 6.71395 22.8895 6.72425 22.8758C7.22475 22.1933 7.67109 21.4729 8.05242 20.7156C8.05774 20.7053 8.06082 20.6939 8.06144 20.6823C8.06206 20.6707 8.06021 20.6591 8.05601 20.6482C8.05181 20.6374 8.04537 20.6275 8.03709 20.6194C8.02882 20.6112 8.0189 20.6048 8.008 20.6008C7.30754 20.3327 6.62942 20.0096 5.98 19.6344C5.9681 19.6276 5.95808 19.6178 5.95084 19.6062C5.9436 19.5945 5.93936 19.5812 5.9385 19.5674C5.93765 19.5537 5.94019 19.54 5.94592 19.5275C5.95165 19.515 5.96038 19.5041 5.97134 19.4958C6.1081 19.3935 6.24246 19.288 6.37434 19.1794C6.38587 19.1701 6.39978 19.1641 6.41451 19.1622C6.42924 19.1603 6.44421 19.1625 6.45775 19.1686C10.7131 21.111 15.3194 21.111 19.5249 19.1686C19.5386 19.1623 19.5538 19.16 19.5687 19.1619C19.5837 19.1638 19.5978 19.1699 19.6094 19.1794C19.7394 19.2856 19.8759 19.3939 20.0135 19.4958C20.0243 19.504 20.033 19.5147 20.0388 19.5269C20.0445 19.5392 20.0472 19.5527 20.0466 19.5663C20.0459 19.5798 20.042 19.593 20.0351 19.6047C20.0282 19.6164 20.0186 19.6262 20.007 19.6334C19.3591 20.012 18.6803 20.3353 17.9779 20.5997C17.967 20.6039 17.9571 20.6103 17.9488 20.6186C17.9405 20.6269 17.934 20.6368 17.9299 20.6478C17.9257 20.6587 17.9238 20.6704 17.9245 20.6821C17.9251 20.6938 17.9282 20.7052 17.9335 20.7156C18.3235 21.4718 18.7698 22.1911 19.2606 22.8747C19.2707 22.8886 19.2849 22.899 19.3012 22.9045C19.3175 22.9099 19.3352 22.9101 19.3516 22.905C21.6899 22.1888 23.8889 21.0787 25.8538 19.6225C25.8633 19.6158 25.8713 19.6071 25.8773 19.597C25.8833 19.5869 25.8871 19.5757 25.8884 19.564C26.4301 13.9556 24.9806 9.08386 22.0437 4.7657C22.0368 4.75114 22.0249 4.73958 22.0101 4.7332V4.73428ZM8.68834 16.6076C7.40675 16.6076 6.35159 15.4322 6.35159 13.987C6.35159 12.5429 7.38725 11.3664 8.68834 11.3664C9.99917 11.3664 11.0457 12.5538 11.0251 13.9881C11.0251 15.4322 9.98942 16.6076 8.68834 16.6076ZM17.3279 16.6076C16.0463 16.6076 14.9912 15.4322 14.9912 13.987C14.9912 12.5429 16.0258 11.3664 17.3279 11.3664C18.6388 11.3664 19.6853 12.5538 19.6647 13.9881C19.6647 15.4322 18.6398 16.6076 17.3279 16.6076Z" fill="#FF9900"/>
</g>
<defs>
<clipPath id="clip0_251_313">
<rect width="26" height="26" fill="white"/>
</clipPath>
</defs>
</svg>
