<?xml version="1.0" encoding="UTF-8" standalone="no"?>
<svg
   width="32"
   height="32"
   viewBox="0 0 32 32"
   fill="none"
   version="1.1"
   id="svg33"
   sodipodi:docname="simple-icons_discord.svg"
   inkscape:version="1.1.2 (b8e25be833, 2022-02-05)"
   xmlns:inkscape="http://www.inkscape.org/namespaces/inkscape"
   xmlns:sodipodi="http://sodipodi.sourceforge.net/DTD/sodipodi-0.dtd"
   xmlns="http://www.w3.org/2000/svg"
   xmlns:svg="http://www.w3.org/2000/svg">
  <sodipodi:namedview
     id="namedview35"
     pagecolor="#ffffff"
     bordercolor="#666666"
     borderopacity="1.0"
     inkscape:pageshadow="2"
     inkscape:pageopacity="0.0"
     inkscape:pagecheckerboard="0"
     showgrid="false"
     inkscape:zoom="8.9272231"
     inkscape:cx="18.87485"
     inkscape:cy="21.339222"
     inkscape:window-width="1920"
     inkscape:window-height="1001"
     inkscape:window-x="-9"
     inkscape:window-y="-9"
     inkscape:window-maximized="1"
     inkscape:current-layer="svg33" />
  <rect
     width="32"
     height="32"
     fill="#E5E5E5"
     id="rect2"
     style="fill:#e5e5e5;fill-opacity:0" />
  <rect
     width="1920"
     height="4258"
     transform="translate(-1764 -34)"
     fill="#0E0E0E"
     id="rect4"
     style="fill:#0e0e0e;fill-opacity:0" />
  <rect
     x="-1764"
     y="-34"
     width="1920"
     height="100"
     fill="#090909"
     id="rect6"
     style="fill:#090909;fill-opacity:0" />
  <g
     clip-path="url(#clip0_0_1)"
     id="g10">
    <path
       d="M27.0892 5.82675C25.0146 4.87453 22.8253 4.19553 20.5759 3.80675C20.5554 3.80276 20.5341 3.80538 20.5152 3.81425C20.4963 3.82311 20.4806 3.83776 20.4706 3.85608C20.1906 4.35608 19.8786 5.00808 19.6599 5.52275C17.2351 5.15446 14.7687 5.15446 12.3439 5.52275C12.1006 4.95249 11.8259 4.39608 11.5212 3.85608C11.5107 3.83817 11.495 3.82387 11.4762 3.81506C11.4574 3.80625 11.4364 3.80336 11.4159 3.80675C9.16637 4.19472 6.97688 4.87376 4.90258 5.82675C4.88501 5.83412 4.87012 5.84668 4.85991 5.86275C0.710575 12.0614 -0.426758 18.1067 0.131908 24.0761C0.133265 24.0909 0.137631 24.1053 0.144738 24.1183C0.151845 24.1314 0.161544 24.1429 0.173242 24.1521C2.5887 25.9417 5.29072 27.3078 8.16391 28.1921C8.18416 28.1979 8.20572 28.1975 8.22572 28.1908C8.24572 28.1842 8.26322 28.1716 8.27591 28.1548C8.89191 27.3148 9.44124 26.4281 9.91058 25.4961C9.91713 25.4834 9.92091 25.4694 9.92168 25.4551C9.92244 25.4408 9.92016 25.4265 9.915 25.4131C9.90983 25.3998 9.90189 25.3877 9.89171 25.3776C9.88153 25.3675 9.86932 25.3598 9.85591 25.3548C8.9938 25.0248 8.15919 24.6272 7.35991 24.1654C7.34526 24.1569 7.33293 24.145 7.32402 24.1306C7.3151 24.1162 7.30989 24.0998 7.30883 24.0829C7.30778 24.066 7.31091 24.0492 7.31796 24.0338C7.32501 24.0184 7.33576 24.005 7.34924 23.9948C7.51756 23.8688 7.68294 23.739 7.84524 23.6054C7.85944 23.5939 7.87656 23.5866 7.89469 23.5842C7.91281 23.5819 7.93124 23.5846 7.94791 23.5921C13.1852 25.9828 18.8546 25.9828 24.0306 23.5921C24.0474 23.5843 24.0661 23.5814 24.0845 23.5838C24.1029 23.5862 24.1202 23.5936 24.1346 23.6054C24.2946 23.7361 24.4626 23.8694 24.6319 23.9948C24.6452 24.0048 24.6559 24.018 24.663 24.0331C24.6701 24.0482 24.6734 24.0648 24.6726 24.0815C24.6718 24.0982 24.667 24.1145 24.6585 24.1288C24.65 24.1432 24.6381 24.1553 24.6239 24.1641C23.8264 24.6302 22.991 25.028 22.1266 25.3534C22.1131 25.3586 22.1009 25.3665 22.0907 25.3767C22.0805 25.3869 22.0726 25.3991 22.0674 25.4126C22.0623 25.426 22.06 25.4404 22.0608 25.4548C22.0615 25.4692 22.0653 25.4833 22.0719 25.4961C22.5519 26.4268 23.1012 27.3121 23.7052 28.1534C23.7177 28.1706 23.7352 28.1834 23.7552 28.1901C23.7753 28.1968 23.797 28.197 23.8172 28.1908C26.6952 27.3092 29.4016 25.9429 31.8199 24.1508C31.8317 24.1424 31.8416 24.1317 31.8489 24.1193C31.8563 24.1069 31.8609 24.0931 31.8626 24.0788C32.5292 17.1761 30.7452 11.1801 27.1306 5.86542C27.1221 5.8475 27.1074 5.83327 27.0892 5.82542V5.82675ZM10.6932 20.4401C9.11591 20.4401 7.81724 18.9934 7.81724 17.2148C7.81724 15.4374 9.09191 13.9894 10.6932 13.9894C12.3066 13.9894 13.5946 15.4508 13.5692 17.2161C13.5692 18.9934 12.2946 20.4401 10.6932 20.4401ZM21.3266 20.4401C19.7492 20.4401 18.4506 18.9934 18.4506 17.2148C18.4506 15.4374 19.7239 13.9894 21.3266 13.9894C22.9399 13.9894 24.2279 15.4508 24.2026 17.2161C24.2026 18.9934 22.9412 20.4401 21.3266 20.4401Z"
       fill="#FF9900"
       id="path8" />
  </g>
  <g
     filter="url(#filter0_f_0_1)"
     id="g16">
    <g
       clip-path="url(#clip1_0_1)"
       id="g14">
      <path
         d="M27.0892 5.82675C25.0146 4.87453 22.8253 4.19553 20.5759 3.80675C20.5554 3.80276 20.5341 3.80538 20.5152 3.81425C20.4963 3.82311 20.4806 3.83776 20.4706 3.85608C20.1906 4.35608 19.8786 5.00808 19.6599 5.52275C17.2351 5.15446 14.7687 5.15446 12.3439 5.52275C12.1006 4.95249 11.8259 4.39608 11.5212 3.85608C11.5107 3.83817 11.495 3.82387 11.4762 3.81506C11.4574 3.80625 11.4364 3.80336 11.4159 3.80675C9.16637 4.19472 6.97688 4.87376 4.90258 5.82675C4.88501 5.83412 4.87012 5.84668 4.85991 5.86275C0.710575 12.0614 -0.426758 18.1067 0.131908 24.0761C0.133265 24.0909 0.137631 24.1053 0.144738 24.1183C0.151845 24.1314 0.161544 24.1429 0.173242 24.1521C2.5887 25.9417 5.29072 27.3078 8.16391 28.1921C8.18416 28.1979 8.20572 28.1975 8.22572 28.1908C8.24572 28.1842 8.26322 28.1716 8.27591 28.1548C8.89191 27.3148 9.44124 26.4281 9.91058 25.4961C9.91713 25.4834 9.92091 25.4694 9.92168 25.4551C9.92244 25.4408 9.92016 25.4265 9.915 25.4131C9.90983 25.3998 9.90189 25.3877 9.89171 25.3776C9.88153 25.3675 9.86932 25.3598 9.85591 25.3548C8.9938 25.0248 8.15919 24.6272 7.35991 24.1654C7.34526 24.1569 7.33293 24.145 7.32402 24.1306C7.3151 24.1162 7.30989 24.0998 7.30883 24.0829C7.30778 24.066 7.31091 24.0492 7.31796 24.0338C7.32501 24.0184 7.33576 24.005 7.34924 23.9948C7.51756 23.8688 7.68294 23.739 7.84524 23.6054C7.85944 23.5939 7.87656 23.5866 7.89469 23.5842C7.91281 23.5819 7.93124 23.5846 7.94791 23.5921C13.1852 25.9828 18.8546 25.9828 24.0306 23.5921C24.0474 23.5843 24.0661 23.5814 24.0845 23.5838C24.1029 23.5862 24.1202 23.5936 24.1346 23.6054C24.2946 23.7361 24.4626 23.8694 24.6319 23.9948C24.6452 24.0048 24.6559 24.018 24.663 24.0331C24.6701 24.0482 24.6734 24.0648 24.6726 24.0815C24.6718 24.0982 24.667 24.1145 24.6585 24.1288C24.65 24.1432 24.6381 24.1553 24.6239 24.1641C23.8264 24.6302 22.991 25.028 22.1266 25.3534C22.1131 25.3586 22.1009 25.3665 22.0907 25.3767C22.0805 25.3869 22.0726 25.3991 22.0674 25.4126C22.0623 25.426 22.06 25.4404 22.0608 25.4548C22.0615 25.4692 22.0653 25.4833 22.0719 25.4961C22.5519 26.4268 23.1012 27.3121 23.7052 28.1534C23.7177 28.1706 23.7352 28.1834 23.7552 28.1901C23.7753 28.1968 23.797 28.197 23.8172 28.1908C26.6952 27.3092 29.4016 25.9429 31.8199 24.1508C31.8317 24.1424 31.8416 24.1317 31.8489 24.1193C31.8563 24.1069 31.8609 24.0931 31.8626 24.0788C32.5292 17.1761 30.7452 11.1801 27.1306 5.86542C27.1221 5.8475 27.1074 5.83327 27.0892 5.82542V5.82675ZM10.6932 20.4401C9.11591 20.4401 7.81724 18.9934 7.81724 17.2148C7.81724 15.4374 9.09191 13.9894 10.6932 13.9894C12.3066 13.9894 13.5946 15.4508 13.5692 17.2161C13.5692 18.9934 12.2946 20.4401 10.6932 20.4401ZM21.3266 20.4401C19.7492 20.4401 18.4506 18.9934 18.4506 17.2148C18.4506 15.4374 19.7239 13.9894 21.3266 13.9894C22.9399 13.9894 24.2279 15.4508 24.2026 17.2161C24.2026 18.9934 22.9412 20.4401 21.3266 20.4401Z"
         fill="#FF9900"
         id="path12" />
    </g>
  </g>
  <defs
     id="defs31">
    <filter
       id="filter0_f_0_1"
       x="-108"
       y="-4"
       width="248"
       height="40.0005"
       filterUnits="userSpaceOnUse"
       color-interpolation-filters="sRGB">
      <feFlood
         flood-opacity="0"
         result="BackgroundImageFix"
         id="feFlood18" />
      <feBlend
         mode="normal"
         in="SourceGraphic"
         in2="BackgroundImageFix"
         result="shape"
         id="feBlend20" />
      <feGaussianBlur
         stdDeviation="2"
         result="effect1_foregroundBlur_0_1"
         id="feGaussianBlur22" />
    </filter>
    <clipPath
       id="clip0_0_1">
      <rect
         width="32"
         height="32"
         fill="white"
         id="rect25" />
    </clipPath>
    <clipPath
       id="clip1_0_1">
      <rect
         width="32"
         height="32"
         fill="white"
         id="rect28" />
    </clipPath>
  </defs>
</svg>
