<?xml version="1.0" encoding="UTF-8" standalone="no"?>
<svg
   width="32"
   height="32"
   viewBox="0 0 32 32"
   fill="none"
   version="1.1"
   id="svg33"
   sodipodi:docname="file-icons_telegram.svg"
   inkscape:version="1.1.2 (b8e25be833, 2022-02-05)"
   xmlns:inkscape="http://www.inkscape.org/namespaces/inkscape"
   xmlns:sodipodi="http://sodipodi.sourceforge.net/DTD/sodipodi-0.dtd"
   xmlns="http://www.w3.org/2000/svg"
   xmlns:svg="http://www.w3.org/2000/svg">
  <sodipodi:namedview
     id="namedview35"
     pagecolor="#ffffff"
     bordercolor="#666666"
     borderopacity="1.0"
     inkscape:pageshadow="2"
     inkscape:pageopacity="0.0"
     inkscape:pagecheckerboard="0"
     showgrid="false"
     inkscape:zoom="6.3125"
     inkscape:cx="-20.356436"
     inkscape:cy="58.059406"
     inkscape:window-width="1920"
     inkscape:window-height="1001"
     inkscape:window-x="-9"
     inkscape:window-y="-9"
     inkscape:window-maximized="1"
     inkscape:current-layer="svg33" />
  <rect
     width="32"
     height="32"
     fill="#E5E5E5"
     id="rect2"
     style="fill:#e5e5e5;fill-opacity:0" />
  <rect
     width="1920"
     height="4258"
     transform="translate(-1660 -34)"
     fill="#0E0E0E"
     id="rect4"
     style="fill:#0e0e0e;fill-opacity:0" />
  <rect
     x="-1660"
     y="-34"
     width="1920"
     height="100"
     fill="#090909"
     id="rect6"
     style="fill:#090909;fill-opacity:0" />
  <g
     clip-path="url(#clip0_0_1)"
     id="g10">
    <path
       d="M29.4022 2.83884L1.0517 13.828C-0.0891702 14.3397 -0.475045 15.3645 0.775955 15.9207L8.04908 18.244L25.6346 7.31965C26.5948 6.63384 27.5778 6.81671 26.7319 7.57115L11.6283 21.3171L11.1539 27.1343C11.5933 28.0325 12.398 28.0367 12.9112 27.5903L17.0898 23.616L24.2464 29.0027C25.9086 29.9918 26.813 29.3535 27.1706 27.5405L31.8647 5.19865C32.3521 2.96709 31.521 1.98384 29.4022 2.83884Z"
       fill="#FF9900"
       id="path8" />
  </g>
  <g
     filter="url(#filter0_f_0_1)"
     id="g16">
    <g
       clip-path="url(#clip1_0_1)"
       id="g14">
      <path
         d="M29.4022 2.83884L1.0517 13.828C-0.0891702 14.3397 -0.475045 15.3645 0.775955 15.9207L8.04908 18.244L25.6346 7.31965C26.5948 6.63384 27.5778 6.81671 26.7319 7.57115L11.6283 21.3171L11.1539 27.1343C11.5933 28.0325 12.398 28.0367 12.9112 27.5903L17.0898 23.616L24.2464 29.0027C25.9086 29.9918 26.813 29.3535 27.1706 27.5405L31.8647 5.19865C32.3521 2.96709 31.521 1.98384 29.4022 2.83884Z"
         fill="#FF9900"
         id="path12" />
    </g>
  </g>
  <defs
     id="defs31">
    <filter
       id="filter0_f_0_1"
       x="-4"
       y="-4"
       width="248"
       height="40.0005"
       filterUnits="userSpaceOnUse"
       color-interpolation-filters="sRGB">
      <feFlood
         flood-opacity="0"
         result="BackgroundImageFix"
         id="feFlood18" />
      <feBlend
         mode="normal"
         in="SourceGraphic"
         in2="BackgroundImageFix"
         result="shape"
         id="feBlend20" />
      <feGaussianBlur
         stdDeviation="2"
         result="effect1_foregroundBlur_0_1"
         id="feGaussianBlur22" />
    </filter>
    <clipPath
       id="clip0_0_1">
      <rect
         width="32"
         height="32"
         fill="white"
         id="rect25" />
    </clipPath>
    <clipPath
       id="clip1_0_1">
      <rect
         width="32"
         height="32"
         fill="white"
         id="rect28" />
    </clipPath>
  </defs>
</svg>
