<?xml version="1.0" encoding="UTF-8" standalone="no"?>
<svg
   width="32"
   height="32"
   viewBox="0 0 32 32"
   fill="none"
   version="1.1"
   id="svg23"
   sodipodi:docname="ic_baseline-tiktok(1).svg"
   inkscape:version="1.1.2 (b8e25be833, 2022-02-05)"
   xmlns:inkscape="http://www.inkscape.org/namespaces/inkscape"
   xmlns:sodipodi="http://sodipodi.sourceforge.net/DTD/sodipodi-0.dtd"
   xmlns="http://www.w3.org/2000/svg"
   xmlns:svg="http://www.w3.org/2000/svg">
  <sodipodi:namedview
     id="namedview25"
     pagecolor="#ffffff"
     bordercolor="#666666"
     borderopacity="1.0"
     inkscape:pageshadow="2"
     inkscape:pageopacity="0.0"
     inkscape:pagecheckerboard="0"
     showgrid="false"
     inkscape:zoom="6.3125"
     inkscape:cx="-8"
     inkscape:cy="31.920792"
     inkscape:window-width="1920"
     inkscape:window-height="1001"
     inkscape:window-x="-9"
     inkscape:window-y="-9"
     inkscape:window-maximized="1"
     inkscape:current-layer="svg23" />
  <rect
     width="32"
     height="32"
     fill="#E5E5E5"
     id="rect2"
     style="fill:#e5e5e5;fill-opacity:0" />
  <rect
     width="1920"
     height="4258"
     transform="translate(-1868 -34)"
     fill="#0E0E0E"
     id="rect4"
     style="fill:#0e0e0e;fill-opacity:0" />
  <rect
     x="-1868"
     y="-34"
     width="1920"
     height="100"
     fill="#090909"
     id="rect6"
     style="fill:#090909;fill-opacity:0" />
  <path
     d="M22.1333 7.76C22.1333 7.76 22.8133 8.42667 22.1333 7.76C21.2219 6.7195 20.7196 5.38324 20.72 4H16.6V20.5333C16.5682 21.428 16.1905 22.2755 15.5463 22.8973C14.9022 23.519 14.0419 23.8665 13.1466 23.8667C11.2533 23.8667 9.67996 22.32 9.67996 20.4C9.67996 18.1067 11.8933 16.3867 14.1733 17.0933V12.88C9.5733 12.2667 5.54663 15.84 5.54663 20.4C5.54663 24.84 9.22663 28 13.1333 28C17.32 28 20.72 24.6 20.72 20.4V12.0133C22.3906 13.2131 24.3964 13.8569 26.4533 13.8533V9.73333C26.4533 9.73333 23.9466 9.85333 22.1333 7.76Z"
     fill="#FF9900"
     id="path8" />
  <g
     filter="url(#filter0_f_0_1)"
     id="g12">
    <path
       d="M22.1333 7.76024C22.1333 7.76024 22.8133 8.42691 22.1333 7.76024C21.2219 6.71974 20.7196 5.38349 20.72 4.00024H16.6V20.5336C16.5682 21.4283 16.1905 22.2757 15.5463 22.8975C14.9022 23.5193 14.0419 23.8668 13.1466 23.8669C11.2533 23.8669 9.67996 22.3202 9.67996 20.4002C9.67996 18.1069 11.8933 16.3869 14.1733 17.0936V12.8802C9.5733 12.2669 5.54663 15.8402 5.54663 20.4002C5.54663 24.8402 9.22663 28.0002 13.1333 28.0002C17.32 28.0002 20.72 24.6002 20.72 20.4002V12.0136C22.3906 13.2134 24.3964 13.8571 26.4533 13.8536V9.73358C26.4533 9.73358 23.9466 9.85358 22.1333 7.76024Z"
       fill="#FF9900"
       id="path10" />
  </g>
  <defs
     id="defs21">
    <filter
       id="filter0_f_0_1"
       x="-212"
       y="-4"
       width="248"
       height="40.0005"
       filterUnits="userSpaceOnUse"
       color-interpolation-filters="sRGB">
      <feFlood
         flood-opacity="0"
         result="BackgroundImageFix"
         id="feFlood14" />
      <feBlend
         mode="normal"
         in="SourceGraphic"
         in2="BackgroundImageFix"
         result="shape"
         id="feBlend16" />
      <feGaussianBlur
         stdDeviation="2"
         result="effect1_foregroundBlur_0_1"
         id="feGaussianBlur18" />
    </filter>
  </defs>
</svg>
