<?xml version="1.0" encoding="UTF-8" standalone="no"?>
<svg
   width="94"
   height="94"
   viewBox="0 0 94 94"
   fill="none"
   version="1.1"
   id="svg43"
   sodipodi:docname="Загогулина.svg"
   inkscape:version="1.1.2 (b8e25be833, 2022-02-05)"
   xmlns:inkscape="http://www.inkscape.org/namespaces/inkscape"
   xmlns:sodipodi="http://sodipodi.sourceforge.net/DTD/sodipodi-0.dtd"
   xmlns="http://www.w3.org/2000/svg"
   xmlns:svg="http://www.w3.org/2000/svg">
  <sodipodi:namedview
     id="namedview45"
     pagecolor="#ffffff"
     bordercolor="#666666"
     borderopacity="1.0"
     inkscape:pageshadow="2"
     inkscape:pageopacity="0.0"
     inkscape:pagecheckerboard="0"
     showgrid="false"
     inkscape:zoom="2.1489362"
     inkscape:cx="85.856436"
     inkscape:cy="27.688119"
     inkscape:window-width="1920"
     inkscape:window-height="1001"
     inkscape:window-x="-9"
     inkscape:window-y="-9"
     inkscape:window-maximized="1"
     inkscape:current-layer="svg43" />
  <g
     id="g3043">
    <path
       d="M60.4394 60.415H82V82H54.3944V47H82"
       stroke="#FF9900"
       stroke-width="8"
       id="path8" />
    <path
       d="M60.4394 33.585H82V12H54.3944V47H82"
       stroke="#FF9900"
       stroke-width="8"
       id="path10" />
    <path
       d="M33.5606 60.415H12V82H39.6056V47H12"
       stroke="#FF9900"
       stroke-width="8"
       id="path12" />
    <path
       d="M33.5606 33.585H12V12H39.6056V47H12"
       stroke="#FF9900"
       stroke-width="8"
       id="path14" />
    <path
       d="M60.4394 60.415H82V82H54.3944V47H82"
       stroke="#FF9900"
       stroke-width="8"
       id="path16" />
    <path
       d="M60.4394 33.585H82V12H54.3944V47H82"
       stroke="#FF9900"
       stroke-width="8"
       id="path18" />
    <path
       d="M33.5606 60.415H12V82H39.6056V47H12"
       stroke="#FF9900"
       stroke-width="8"
       id="path20" />
    <path
       d="M33.5606 33.585H12V12H39.6056V47H12"
       stroke="#FF9900"
       stroke-width="8"
       id="path22" />
    <g
       filter="url(#filter0_f_0_1)"
       id="g32">
      <path
         d="M60.4394 60.415H82V82H54.3944V47H82"
         stroke="#FF9900"
         stroke-width="8"
         id="path24" />
      <path
         d="M60.4394 33.585H82V12H54.3944V47H82"
         stroke="#FF9900"
         stroke-width="8"
         id="path26" />
      <path
         d="M33.5606 60.415H12V82H39.6056V47H12"
         stroke="#FF9900"
         stroke-width="8"
         id="path28" />
      <path
         d="M33.5606 33.585H12V12H39.6056V47H12"
         stroke="#FF9900"
         stroke-width="8"
         id="path30" />
    </g>
  </g>
  <defs
     id="defs41">
    <filter
       id="filter0_f_0_1"
       x="0"
       y="0"
       width="94"
       height="94"
       filterUnits="userSpaceOnUse"
       color-interpolation-filters="sRGB">
      <feFlood
         flood-opacity="0"
         result="BackgroundImageFix"
         id="feFlood34" />
      <feBlend
         mode="normal"
         in="SourceGraphic"
         in2="BackgroundImageFix"
         result="shape"
         id="feBlend36" />
      <feGaussianBlur
         stdDeviation="4"
         result="effect1_foregroundBlur_0_1"
         id="feGaussianBlur38" />
    </filter>
  </defs>
</svg>
