<svg width="71" height="68" viewBox="0 0 71 68" fill="none" xmlns="http://www.w3.org/2000/svg">
<path d="M4.86185 61.4195C4.71683 60.1117 3.86604 59.1962 3.47931 58.9906C3.3923 58.9439 3.30529 58.9346 3.20861 58.9439C-0.155884 59.5231 1.18798 61.4569 1.70039 62.0641C1.79707 62.1762 1.94209 62.2322 2.09678 62.2042C7.25953 61.3354 3.67268 60.4573 13.1764 57.851C13.1764 57.851 17.5657 61.4102 19.0063 62.1015C17.5754 63.3532 14.6363 63.8764 12.3353 64.6704C11.8615 64.8292 11.4168 65.0628 10.9914 65.3337C9.66689 66.2025 5.91567 68.2857 4.49446 65.8755C4.33011 65.6046 4.14641 65.343 3.95305 65.0908L1.70039 62.0828" fill="white"/>
<path d="M4.86185 61.4195C4.71683 60.1117 3.86604 59.1962 3.47931 58.9906C3.3923 58.9439 3.30529 58.9346 3.20861 58.9439C-0.155884 59.5231 1.18798 61.4569 1.70039 62.0641C1.79707 62.1762 1.94209 62.2322 2.09678 62.2042C7.25953 61.3354 3.67268 60.4573 13.1764 57.851C13.1764 57.851 17.5657 61.4102 19.0062 62.1015C17.5754 63.3532 14.6363 63.8764 12.3353 64.6704C11.8615 64.8292 11.4168 65.0628 10.9914 65.3337C9.66689 66.2025 5.91567 68.2857 4.49446 65.8755C4.33011 65.6046 4.14641 65.343 3.95305 65.0908L1.70039 62.0828" stroke="#1D1D1B" stroke-width="0.1" stroke-miterlimit="10"/>
<path d="M3.71129 59.1494L2.46411 60.5507L3.43092 61.9239" stroke="#1D1D1B" stroke-width="0.1" stroke-miterlimit="10"/>
<path d="M8.52614 64.9507L7.22095 65.7728L7.39497 65.0721" stroke="#1D1D1B" stroke-width="0.1" stroke-miterlimit="10"/>
<path d="M6.37976 65.3617C7.20204 65.3617 7.86864 64.6883 7.86864 63.8577C7.86864 63.027 7.20204 62.3536 6.37976 62.3536C5.55747 62.3536 4.89087 63.027 4.89087 63.8577C4.89087 64.6883 5.55747 65.3617 6.37976 65.3617Z" stroke="#1D1D1B" stroke-width="0.1" stroke-miterlimit="10"/>
<path d="M7.45288 61.9052L7.86861 61.6437L9.93758 63.7549L9.8409 60.7375L10.1503 60.6534" stroke="#1D1D1B" stroke-width="0.1" stroke-miterlimit="10"/>
<path d="M12.1516 62.83L11.4749 60.1116" stroke="#1D1D1B" stroke-width="0.1" stroke-miterlimit="10"/>
<path d="M12.5382 62.7648L11.9001 62.9609" stroke="#1D1D1B" stroke-width="0.1" stroke-miterlimit="10"/>
<path d="M14.1819 59.8407L14.0852 59.6258C14.0852 59.6258 12.5673 59.5604 12.7317 60.4479C12.8574 61.1485 13.8145 61.1485 14.2302 61.1112C14.3656 61.1018 14.5009 61.1579 14.5783 61.27C14.7523 61.5315 14.9263 62.0267 14.2689 62.5498C14.2689 62.5498 13.7275 63.0075 13.2054 62.5498L13.2344 62.3536" stroke="#1D1D1B" stroke-width="0.1" stroke-miterlimit="10"/>
<path d="M11.1172 60.1864L11.4749 60.1117L11.8326 60.0276" stroke="#1D1D1B" stroke-width="0.1" stroke-miterlimit="10"/>
<path d="M51.1719 54.3198C34.5138 43.2592 20.1277 53.5818 20.1277 53.5818C22.4094 55.1419 24.9811 56.2909 27.7945 57.085C29.6024 55.3381 40.8561 55.3007 43.1377 57.5147C46.3475 56.7673 51.1719 54.3198 51.1719 54.3198Z" fill="white" stroke="#1D1D1B" stroke-width="0.1" stroke-miterlimit="10"/>
<path d="M27.6784 52.5542L27.6397 52.2833C27.6397 52.2833 25.7448 52.4795 25.9382 54.0956C26.1315 55.7117 27.9685 55.6744 28.8773 54.7776" stroke="#1D1D1B" stroke-width="0.1" stroke-miterlimit="10"/>
<path d="M30.3952 54.5906C31.2282 54.5906 31.9034 53.8754 31.9034 52.9932C31.9034 52.111 31.2282 51.3958 30.3952 51.3958C29.5622 51.3958 28.887 52.111 28.887 52.9932C28.887 53.8754 29.5622 54.5906 30.3952 54.5906Z" stroke="#1D1D1B" stroke-width="0.1" stroke-miterlimit="10"/>
<path d="M34.9682 51.0128H35.3162L35.3066 53.7593L32.8315 51.2557L32.9089 54.0769" stroke="#1D1D1B" stroke-width="0.1" stroke-miterlimit="10"/>
<path d="M36.4573 51.4332L36.4766 51.0409L38.797 51.2184V51.6107" stroke="#1D1D1B" stroke-width="0.1" stroke-miterlimit="10"/>
<path d="M37.627 51.181L37.4819 54.161" stroke="#1D1D1B" stroke-width="0.1" stroke-miterlimit="10"/>
<path d="M37.134 54.161L37.8108 54.2171" stroke="#1D1D1B" stroke-width="0.1" stroke-miterlimit="10"/>
<path d="M39.8409 54.4785L39.0771 54.3851" stroke="#1D1D1B" stroke-width="0.1" stroke-miterlimit="10"/>
<path d="M39.5413 51.3772L40.044 51.4986L40.8271 51.6855C41.91 52.0685 41.9293 53.2736 39.754 53.1148C41.4942 53.5632 40.5468 54.7215 41.4942 54.8523" stroke="#1D1D1B" stroke-width="0.1" stroke-miterlimit="10"/>
<path d="M40.0441 51.4987L39.4543 54.3105" stroke="#1D1D1B" stroke-width="0.1" stroke-miterlimit="10"/>
<path d="M42.2871 55.2166L42.6835 55.3941L44.6848 53.124V55.0391V56.1507L45.0038 56.3563" stroke="#1D1D1B" stroke-width="0.1" stroke-miterlimit="10"/>
<path d="M44.6364 55.0205L43.4666 54.5814" stroke="#1D1D1B" stroke-width="0.1" stroke-miterlimit="10"/>
<path d="M66.148 61.4288C66.293 60.121 67.1341 59.1962 67.5208 58.9906C67.6079 58.9439 67.6949 58.9346 67.7916 58.9439C71.156 59.5231 69.8122 61.4569 69.2998 62.0641C69.2031 62.1762 69.0581 62.2322 68.9034 62.2042C63.7406 61.3354 67.3275 60.4573 57.8238 57.851C57.8238 57.851 53.4344 61.4102 51.9939 62.1015C53.4248 63.3532 56.3639 63.8764 58.6649 64.6704C59.1386 64.8292 59.5833 65.0628 60.0087 65.3337C61.3333 66.2025 65.0845 68.2857 66.5057 65.8755C66.6701 65.6046 66.8537 65.343 67.0471 65.0908L69.2998 62.0828" fill="white"/>
<path d="M66.148 61.4288C66.293 60.121 67.1341 59.1962 67.5208 58.9906C67.6079 58.9439 67.6949 58.9346 67.7916 58.9439C71.156 59.5231 69.8122 61.4569 69.2998 62.0641C69.2031 62.1762 69.0581 62.2322 68.9034 62.2042C63.7406 61.3354 67.3275 60.4573 57.8238 57.851C57.8238 57.851 53.4344 61.4102 51.9939 62.1015C53.4248 63.3532 56.3639 63.8764 58.6649 64.6704C59.1386 64.8292 59.5833 65.0628 60.0087 65.3337C61.3333 66.2025 65.0845 68.2857 66.5057 65.8755C66.6701 65.6046 66.8537 65.343 67.0471 65.0908L69.2998 62.0828" stroke="#1D1D1B" stroke-width="0.1" stroke-miterlimit="10"/>
<path d="M67.2983 59.1307L68.5359 60.5507L67.5594 61.9239" stroke="#1D1D1B" stroke-width="0.1" stroke-miterlimit="10"/>
<path d="M56.1802 62.1014L55.7935 61.8025L57.1953 59.3456L58.1621 62.9889L59.448 60.2704L59.8637 60.4012" stroke="#1D1D1B" stroke-width="0.1" stroke-miterlimit="10"/>
<path d="M61.0625 64.0819C61.8794 64.0819 62.5417 63.3835 62.5417 62.5219C62.5417 61.6603 61.8794 60.9618 61.0625 60.9618C60.2455 60.9618 59.5833 61.6603 59.5833 62.5219C59.5833 63.3835 60.2455 64.0819 61.0625 64.0819Z" stroke="#1D1D1B" stroke-width="0.1" stroke-miterlimit="10"/>
<path d="M62.416 64.2687C62.416 64.2687 62.155 64.9693 62.9864 65.3056C63.7115 65.6046 64.4173 65.0627 64.1949 64.4182C64.1466 64.2687 64.0499 64.1473 63.9242 64.0445C63.0058 63.2785 63.3828 62.5311 64.2143 62.5218C65.0747 62.5125 65.1521 63.456 65.1521 63.456" stroke="#1D1D1B" stroke-width="0.1" stroke-miterlimit="10"/>
<path d="M65.8965 63.4654C65.8965 63.4654 66.9504 63.2318 66.8053 64.0913C66.757 64.3528 66.525 64.5397 66.2736 64.6424C65.8579 64.8106 65.6065 65.0067 65.4421 65.2777" stroke="#1D1D1B" stroke-width="0.1" stroke-miterlimit="10"/>
<path d="M65.1714 65.698L65.1521 65.7447" stroke="#1D1D1B" stroke-width="0.1" stroke-miterlimit="10"/>
<path d="M35.4032 1.06251C33.953 1.06251 31.913 1.6417 30.5885 2.28628C28.6452 3.48202 27.4947 3.76228 26.2475 4.07055C25.5418 4.24805 24.9327 4.56567 24.7103 4.9767C24.604 5.18222 24.4106 5.33169 24.1882 5.41576C11.6777 9.79704 2.9668 21.3901 2.9668 34.9917C2.9668 52.358 17.5366 66.4267 35.4999 66.4267C53.4729 66.4267 68.033 52.3487 68.033 34.9917C68.033 19.9982 57.7462 7.76054 40.8657 3.79964C39.5218 3.46334 42.4416 3.19243 41.5134 2.51982C40.5853 0.539375 36.4184 1.06251 35.4032 1.06251ZM39.5992 7.02254C40.3823 6.74229 42.2579 6.39665 45.2163 7.76988C45.3033 7.79791 45.4 7.82593 45.487 7.85396C45.661 7.91001 45.8351 7.96606 46.0091 8.02211C53.8306 10.6845 60.0085 16.6259 62.6672 24.0993C63.5857 26.6869 64.0884 29.4614 64.0884 32.348C64.0884 46.6222 51.8583 58.1966 36.7761 58.1966C19.5862 58.3554 9.64744 46.7997 9.46375 32.6843C9.46375 32.6656 9.46375 32.6469 9.46375 32.6283C9.46375 32.5348 9.46375 32.4414 9.46375 32.348C9.74412 20.7736 18.0297 11.6 29.2833 8.09685C33.4793 6.95715 35.8769 7.47095 38.4293 7.26543C38.8257 7.2374 39.2221 7.15333 39.5992 7.02254Z" fill="#FFED00" stroke="#1D1D1B" stroke-width="0.25" stroke-miterlimit="10"/>
<path d="M27.4754 3.73425C27.4754 3.73425 26.1412 4.93934 26.6343 9.01234" stroke="#1D1D1B" stroke-width="0.1" stroke-miterlimit="10"/>
<path d="M22.6897 5.9762C22.6897 5.9762 27.7654 6.06027 28.7032 8.27427" stroke="#1D1D1B" stroke-width="0.1" stroke-miterlimit="10"/>
<path d="M26.7599 8.99367C26.7599 8.99367 24.9327 6.77034 19.6636 7.39623" stroke="#1D1D1B" stroke-width="0.1" stroke-miterlimit="10"/>
<path d="M17.5464 8.62927C17.5464 8.62927 23.9467 8.46111 24.0723 10.236" stroke="#1D1D1B" stroke-width="0.1" stroke-miterlimit="10"/>
<path d="M14.8877 10.5071C14.8877 10.5071 21.3073 9.76911 21.781 11.544" stroke="#1D1D1B" stroke-width="0.1" stroke-miterlimit="10"/>
<path d="M12.1033 12.9826C12.1033 12.9826 19.3737 10.7032 20.0794 12.7023" stroke="#1D1D1B" stroke-width="0.1" stroke-miterlimit="10"/>
<path d="M10.4888 14.7202C10.4888 14.7202 17.4111 12.7864 18.0299 14.3558" stroke="#1D1D1B" stroke-width="0.1" stroke-miterlimit="10"/>
<path d="M9.05786 16.5137C9.05786 16.5137 12.8284 14.8229 16.4153 15.9065" stroke="#1D1D1B" stroke-width="0.1" stroke-miterlimit="10"/>
<path d="M7.44336 18.9145C7.44336 18.9145 11.3009 16.7099 15.0425 17.4572" stroke="#1D1D1B" stroke-width="0.1" stroke-miterlimit="10"/>
<path d="M6.13794 21.2968C6.16694 21.2314 9.2414 18.3447 13.534 19.4844" stroke="#1D1D1B" stroke-width="0.1" stroke-miterlimit="10"/>
<path d="M12.1128 21.904C12.1128 21.904 9.5314 20.5214 5.09375 23.6602" stroke="#1D1D1B" stroke-width="0.1" stroke-miterlimit="10"/>
<path d="M3.86597 27.5557C3.86597 27.5557 8.47764 21.8946 11.117 24.1273" stroke="#1D1D1B" stroke-width="0.1" stroke-miterlimit="10"/>
<path d="M3.33423 30.2741C3.33423 30.2741 7.39482 25.5472 10.4886 25.323" stroke="#1D1D1B" stroke-width="0.1" stroke-miterlimit="10"/>
<path d="M10.1018 27.3315C10.1018 27.3315 8.00387 26.5375 2.9668 33.7119" stroke="#1D1D1B" stroke-width="0.1" stroke-miterlimit="10"/>
<path d="M9.46375 29.8164C9.46375 29.8164 6.72768 30.1901 3.06348 37.8129" stroke="#1D1D1B" stroke-width="0.1" stroke-miterlimit="10"/>
<path d="M9.47361 33.0486C9.47361 33.0486 6.07044 32.5722 3.46973 40.4753" stroke="#1D1D1B" stroke-width="0.1" stroke-miterlimit="10"/>
<path d="M4.10767 43.2685C4.10767 43.2685 6.399 36.0286 9.46378 35.683" stroke="#1D1D1B" stroke-width="0.1" stroke-miterlimit="10"/>
<path d="M10.0052 37.9344C10.0052 37.9344 5.84791 38.3735 5.21948 46.5008" stroke="#1D1D1B" stroke-width="0.1" stroke-miterlimit="10"/>
<path d="M10.6337 40.4753C10.6337 40.4753 6.75684 42.3063 6.4668 49.1818" stroke="#1D1D1B" stroke-width="0.1" stroke-miterlimit="10"/>
<path d="M11.552 43.0349C11.552 43.0349 8.59361 43.502 8.26489 52.1805" stroke="#1D1D1B" stroke-width="0.1" stroke-miterlimit="10"/>
<path d="M12.7511 45.5012C12.7511 45.5012 8.87426 47.4723 10.8272 55.4689" stroke="#1D1D1B" stroke-width="0.1" stroke-miterlimit="10"/>
<path d="M13.0603 57.7483C13.0603 57.7483 11.4264 48.8829 14.1141 47.6779" stroke="#1D1D1B" stroke-width="0.1" stroke-miterlimit="10"/>
<path d="M16.0961 50.1254C16.0961 50.1254 13.5534 51.536 15.8447 60.0463" stroke="#1D1D1B" stroke-width="0.1" stroke-miterlimit="10"/>
<path d="M17.9039 51.8722C17.9039 51.8722 15.4966 56.2254 19.0254 62.1014" stroke="#1D1D1B" stroke-width="0.1" stroke-miterlimit="10"/>
<path d="M23.6661 64.2782C23.5211 64.026 17.904 61.1674 19.9439 53.4604" stroke="#1D1D1B" stroke-width="0.1" stroke-miterlimit="10"/>
<path d="M22.5158 55.0111C22.5158 55.0111 19.683 57.9164 25.3002 64.848" stroke="#1D1D1B" stroke-width="0.1" stroke-miterlimit="10"/>
<path d="M24.7008 56.0294C24.7008 56.0294 23.2603 62.4005 29.6606 65.9223" stroke="#1D1D1B" stroke-width="0.1" stroke-miterlimit="10"/>
<path d="M27.7946 57.085C27.7946 57.085 25.0585 61.8679 32.8703 66.3239" stroke="#1D1D1B" stroke-width="0.1" stroke-miterlimit="10"/>
<path d="M30.3854 57.6735C30.3854 57.6735 28.4132 62.8114 36.631 66.4267" stroke="#1D1D1B" stroke-width="0.1" stroke-miterlimit="10"/>
<path d="M33.6051 58.0845C33.6051 58.0845 31.1301 61.4662 39.8797 66.1464" stroke="#1D1D1B" stroke-width="0.1" stroke-miterlimit="10"/>
<path d="M36.4378 58.0845C36.4378 58.0845 35.4419 62.2696 43.7661 65.3991" stroke="#1D1D1B" stroke-width="0.1" stroke-miterlimit="10"/>
<path d="M13.4375 11.7213C13.4375 11.7213 13.2054 15.7476 14.2592 17.2983" stroke="#1D1D1B" stroke-width="0.1" stroke-miterlimit="10"/>
<path d="M15.429 10.0865C15.429 10.0865 14.5685 12.6275 15.6127 15.7103" stroke="#1D1D1B" stroke-width="0.1" stroke-miterlimit="10"/>
<path d="M17.3045 8.77881C17.3045 8.77881 16.2797 11.0115 17.4206 13.8794" stroke="#1D1D1B" stroke-width="0.1" stroke-miterlimit="10"/>
<path d="M19.4508 7.5083C19.4508 7.5083 18.513 9.33928 18.9191 11.955" stroke="#1D1D1B" stroke-width="0.1" stroke-miterlimit="10"/>
<path d="M21.6747 6.41528C21.6747 6.41528 20.2341 7.16262 20.6305 10.6751" stroke="#1D1D1B" stroke-width="0.1" stroke-miterlimit="10"/>
<path d="M23.7822 5.55579C23.7822 5.55579 22.245 7.58295 22.4577 9.8997" stroke="#1D1D1B" stroke-width="0.1" stroke-miterlimit="10"/>
<path d="M12.0161 13.0759C12.0161 13.0759 11.1943 15.2806 12.2192 19.2228" stroke="#1D1D1B" stroke-width="0.1" stroke-miterlimit="10"/>
<path d="M10.2953 14.9443C10.2953 14.9443 9.5412 20.4933 10.624 21.605" stroke="#1D1D1B" stroke-width="0.1" stroke-miterlimit="10"/>
<path d="M8.44877 17.3639C8.44877 17.3639 7.91703 22.4551 9.96667 25.3324" stroke="#1D1D1B" stroke-width="0.1" stroke-miterlimit="10"/>
<path d="M6.76636 20.0823C6.76636 20.0823 6.89204 23.5481 8.85466 25.7994" stroke="#1D1D1B" stroke-width="0.1" stroke-miterlimit="10"/>
<path d="M8.46785 27.808C8.46785 27.808 5.41275 24.0152 5.66412 22.3057" stroke="#1D1D1B" stroke-width="0.1" stroke-miterlimit="10"/>
<path d="M8.60342 30.1994C8.54541 30.2368 6.87283 29.2372 4.55249 25.1642" stroke="#1D1D1B" stroke-width="0.1" stroke-miterlimit="10"/>
<path d="M3.93359 27.2661C3.93359 27.2661 5.96389 31.3952 8.45826 33.2261" stroke="#1D1D1B" stroke-width="0.1" stroke-miterlimit="10"/>
<path d="M8.31344 35.5709C8.31344 35.5709 4.18516 32.2172 3.46973 29.8164" stroke="#1D1D1B" stroke-width="0.1" stroke-miterlimit="10"/>
<path d="M3.06348 33.0393C3.06348 33.0393 5.58685 37.3552 8.84499 38.3828" stroke="#1D1D1B" stroke-width="0.1" stroke-miterlimit="10"/>
<path d="M9.64744 41.176C9.64744 41.176 6.18627 40.3352 3.01514 36.6359" stroke="#1D1D1B" stroke-width="0.1" stroke-miterlimit="10"/>
<path d="M10.6143 43.5394C10.6143 43.5394 5.7513 42.7454 3.21826 38.8685" stroke="#1D1D1B" stroke-width="0.1" stroke-miterlimit="10"/>
<path d="M11.9969 46.1084C11.9969 46.1084 6.03172 45.1835 3.77905 41.9886" stroke="#1D1D1B" stroke-width="0.1" stroke-miterlimit="10"/>
<path d="M13.4181 48.1823C13.4181 48.1823 7.59789 47.8366 4.52344 44.623" stroke="#1D1D1B" stroke-width="0.1" stroke-miterlimit="10"/>
<path d="M14.8877 50.1254C14.8877 50.1254 10.2663 51.1156 5.51929 47.2201" stroke="#1D1D1B" stroke-width="0.1" stroke-miterlimit="10"/>
<path d="M17.5948 52.601C17.5948 52.601 12.7318 53.5165 6.88257 49.9573" stroke="#1D1D1B" stroke-width="0.1" stroke-miterlimit="10"/>
<path d="M19.7604 54.2264C19.7604 54.2264 15.1197 55.8706 8.54541 52.601" stroke="#1D1D1B" stroke-width="0.1" stroke-miterlimit="10"/>
<path d="M21.9356 56.2068C21.9356 56.2068 19.4509 58.3087 10.7109 55.3474" stroke="#1D1D1B" stroke-width="0.1" stroke-miterlimit="10"/>
<path d="M24.575 56.9822C24.575 56.9822 20.3501 59.7473 13.4761 58.1219" stroke="#1D1D1B" stroke-width="0.1" stroke-miterlimit="10"/>
<path d="M15.9221 60.0463C15.9221 60.0463 25.3775 60.4667 27.4561 58.0565" stroke="#1D1D1B" stroke-width="0.1" stroke-miterlimit="10"/>
<path d="M19.3252 62.2696C27.166 62.5031 30.0954 59.0374 30.0954 59.0374" stroke="#1D1D1B" stroke-width="0.1" stroke-miterlimit="10"/>
<path d="M33.286 59.411C33.286 59.411 32.0775 62.0734 22.7188 63.9044" stroke="#1D1D1B" stroke-width="0.1" stroke-miterlimit="10"/>
<path d="M36.5247 59.411C36.5247 59.411 31.246 64.7171 25.7642 64.988" stroke="#1D1D1B" stroke-width="0.1" stroke-miterlimit="10"/>
<path d="M40.0825 58.0284C40.0825 58.0284 40.9527 61.0645 30.0181 65.9222" stroke="#1D1D1B" stroke-width="0.1" stroke-miterlimit="10"/>
<path d="M43.0314 57.5146C43.0314 57.5146 44.8877 62.2789 34.5042 66.4173" stroke="#1D1D1B" stroke-width="0.1" stroke-miterlimit="10"/>
<path d="M39.7249 59.3456C39.7249 59.3456 40.885 63.2037 49.0062 63.6054" stroke="#1D1D1B" stroke-width="0.1" stroke-miterlimit="10"/>
<path d="M43.1377 58.8691C43.1377 58.8691 43.3697 61.4661 52.361 61.8865" stroke="#1D1D1B" stroke-width="0.1" stroke-miterlimit="10"/>
<path d="M45.7385 56.7673C45.8352 56.7767 45.3711 60.3266 55.3099 59.9342" stroke="#1D1D1B" stroke-width="0.1" stroke-miterlimit="10"/>
<path d="M48.3199 55.7771C48.3199 55.7771 47.9815 58.9813 57.4562 58.1966" stroke="#1D1D1B" stroke-width="0.1" stroke-miterlimit="10"/>
<path d="M50.6982 54.5907C50.6982 54.5907 51.5297 58.0378 59.9119 55.7771" stroke="#1D1D1B" stroke-width="0.1" stroke-miterlimit="10"/>
<path d="M52.6414 53.3856C52.6414 53.3856 53.1634 56.6459 61.3813 54.0489" stroke="#1D1D1B" stroke-width="0.1" stroke-miterlimit="10"/>
<path d="M55.5225 52.8624C55.5225 52.8624 55.9769 54.1796 62.1354 53.0493" stroke="#1D1D1B" stroke-width="0.1" stroke-miterlimit="10"/>
<path d="M56.7603 51.5079C58.3071 51.4426 60.6662 52.2179 64.0887 50.0226" stroke="#1D1D1B" stroke-width="0.1" stroke-miterlimit="10"/>
<path d="M57.7561 49.0043C58.2202 49.3873 61.575 50.7886 65.3359 47.5657" stroke="#1D1D1B" stroke-width="0.1" stroke-miterlimit="10"/>
<path d="M60.2502 47.4536C60.2502 47.4536 62.4352 48.2663 66.2928 45.1555" stroke="#1D1D1B" stroke-width="0.1" stroke-miterlimit="10"/>
<path d="M60.521 45.1649C61.0044 45.0528 63.3247 45.8936 62.8703 51.9937" stroke="#1D1D1B" stroke-width="0.1" stroke-miterlimit="10"/>
<path d="M66.9213 43.2125C65.9158 44.866 62.2999 46.1272 61.0044 45.249" stroke="#1D1D1B" stroke-width="0.1" stroke-miterlimit="10"/>
<path d="M61.5459 43.2591C62.039 43.5394 64.8814 44.1279 67.5401 40.522" stroke="#1D1D1B" stroke-width="0.1" stroke-miterlimit="10"/>
<path d="M63.373 41.4749C64.0498 41.8018 65.6644 42.2315 67.8977 37.8783" stroke="#1D1D1B" stroke-width="0.1" stroke-miterlimit="10"/>
<path d="M63.9724 39.6066C63.9724 39.6066 66.0124 39.6813 68.0427 35.3374" stroke="#1D1D1B" stroke-width="0.1" stroke-miterlimit="10"/>
<path d="M64.0886 32.5442C64.0886 32.5442 66.9407 34.1416 68.0332 35.5709" stroke="#1D1D1B" stroke-width="0.1" stroke-miterlimit="10"/>
<path d="M63.8179 36.01C63.8179 36.01 66.0125 36.3743 67.8108 31.1803" stroke="#1D1D1B" stroke-width="0.1" stroke-miterlimit="10"/>
<path d="M64.804 31.2363C64.804 31.2363 67.2597 32.9646 68.0138 33.7119" stroke="#1D1D1B" stroke-width="0.1" stroke-miterlimit="10"/>
<path d="M66.3894 24.9493C66.3604 27.2287 64.8908 28.9289 64.6008 29.2185C64.5814 29.2465 64.6008 29.3867 64.6201 29.4053C65.0068 29.6576 67.2692 31.1709 67.8783 31.8342" stroke="#1D1D1B" stroke-width="0.1" stroke-miterlimit="10"/>
<path d="M63.7986 25.7902C63.7986 25.7902 65.6065 27.481 67.0857 27.3035" stroke="#1D1D1B" stroke-width="0.1" stroke-miterlimit="10"/>
<path d="M64.3301 27.7705C64.3301 27.7705 66.8051 29.0877 67.6656 30.0966" stroke="#1D1D1B" stroke-width="0.1" stroke-miterlimit="10"/>
<path d="M64.804 31.2364C64.804 31.2364 66.9213 29.1625 67.0856 27.4717" stroke="#1D1D1B" stroke-width="0.1" stroke-miterlimit="10"/>
<path d="M63.4312 24.3048C63.4312 24.3048 64.775 23.8658 64.9007 21.4182" stroke="#1D1D1B" stroke-width="0.1" stroke-miterlimit="10"/>
<path d="M66.0609 24.0525C64.8911 24.0525 63.0251 23.081 63.0251 23.081C63.0251 23.081 64.1176 21.1659 64.05 19.8301" stroke="#1D1D1B" stroke-width="0.1" stroke-miterlimit="10"/>
<path d="M66.873 26.4907C66.5056 25.6312 63.4312 24.3047 63.4312 24.3047" stroke="#1D1D1B" stroke-width="0.1" stroke-miterlimit="10"/>
<path d="M64.0596 26.416C64.0596 26.416 65.5194 25.9302 65.6645 23.0903" stroke="#1D1D1B" stroke-width="0.1" stroke-miterlimit="10"/>
<path d="M65.4323 22.5485C64.4558 22.6979 62.3481 21.7918 62.3481 21.7918C62.3481 21.7918 63.431 19.8487 63.0249 18.2793" stroke="#1D1D1B" stroke-width="0.1" stroke-miterlimit="10"/>
<path d="M64.6395 20.9137C63.5277 21.4743 61.5071 20.428 61.5071 20.428C61.5071 20.428 62.1355 19.1295 61.8551 16.5698" stroke="#1D1D1B" stroke-width="0.1" stroke-miterlimit="10"/>
<path d="M64.978 33.0767C64.978 33.0767 67.5981 30.6011 67.4917 29.1064" stroke="#1D1D1B" stroke-width="0.1" stroke-miterlimit="10"/>
<path d="M64.8137 34.6461C64.8137 34.6461 66.9214 36.1595 67.8205 38.7191" stroke="#1D1D1B" stroke-width="0.1" stroke-miterlimit="10"/>
<path d="M64.3203 38.2053C64.3203 38.2053 67.4915 35.7484 68.0039 33.3569" stroke="#1D1D1B" stroke-width="0.1" stroke-miterlimit="10"/>
<path d="M64.5913 35.8605C64.5913 35.8605 67.4531 40.5967 67.3757 41.3628" stroke="#1D1D1B" stroke-width="0.1" stroke-miterlimit="10"/>
<path d="M66.1961 45.0715C66.1187 44.7258 67.0468 42.1008 63.9724 39.6066" stroke="#1D1D1B" stroke-width="0.1" stroke-miterlimit="10"/>
<path d="M63.373 41.4749C63.9725 41.7831 65.558 43.3432 65.268 47.6965" stroke="#1D1D1B" stroke-width="0.1" stroke-miterlimit="10"/>
<path d="M61.5459 43.2592C63.4795 43.1844 64.5913 47.3322 64.0886 50.0226" stroke="#1D1D1B" stroke-width="0.1" stroke-miterlimit="10"/>
<path d="M59.5156 46.7903C59.9314 46.8277 63.3732 47.603 61.3816 54.0488" stroke="#1D1D1B" stroke-width="0.1" stroke-miterlimit="10"/>
<path d="M59.1093 48.9669C59.1093 48.9669 60.5886 52.031 58.4519 57.2717" stroke="#1D1D1B" stroke-width="0.1" stroke-miterlimit="10"/>
<path d="M57.379 50.9008C57.5917 51.1343 58.4522 55.5997 56.0835 59.3457" stroke="#1D1D1B" stroke-width="0.1" stroke-miterlimit="10"/>
<path d="M55.5226 52.8624C55.5226 52.8624 56.6247 57.3651 53.5986 61.1205" stroke="#1D1D1B" stroke-width="0.1" stroke-miterlimit="10"/>
<path d="M53.8403 53.9275C53.8403 53.9275 55.3291 56.2816 51.1719 62.5499" stroke="#1D1D1B" stroke-width="0.1" stroke-miterlimit="10"/>
<path d="M51.9455 55.9265C51.9455 55.9265 51.3847 61.8305 47.6045 64.1846" stroke="#1D1D1B" stroke-width="0.1" stroke-miterlimit="10"/>
<path d="M48.7838 56.8326C48.7838 56.8326 50.1857 60.3358 44.0562 65.3336" stroke="#1D1D1B" stroke-width="0.1" stroke-miterlimit="10"/>
<path d="M46.1736 57.851C46.1736 57.851 46.0672 62.8208 39.1545 66.2305" stroke="#1D1D1B" stroke-width="0.1" stroke-miterlimit="10"/>
<path d="M60.2793 19.1669C60.2793 19.1669 61.7102 20.1198 64.0208 19.6994" stroke="#1D1D1B" stroke-width="0.1" stroke-miterlimit="10"/>
<path d="M63.1895 18.4383C63.1702 18.4102 61.4396 18.8026 59.7573 18.3635" stroke="#1D1D1B" stroke-width="0.1" stroke-miterlimit="10"/>
<path d="M61.0238 15.533C61.0238 15.533 61.2075 18.4009 60.3374 19.2697" stroke="#1D1D1B" stroke-width="0.1" stroke-miterlimit="10"/>
<path d="M58.9546 17.261C58.9643 17.2797 61.3619 17.1022 62.3481 17.1676" stroke="#1D1D1B" stroke-width="0.1" stroke-miterlimit="10"/>
<path d="M59.8444 14.2157C59.8444 14.2157 60.0667 16.5792 59.4189 17.887" stroke="#1D1D1B" stroke-width="0.1" stroke-miterlimit="10"/>
<path d="M57.8428 15.9065C57.8428 15.9065 60.5208 15.7197 61.3233 15.9065" stroke="#1D1D1B" stroke-width="0.1" stroke-miterlimit="10"/>
<path d="M57.0503 15.0285C57.0503 15.0285 59.4383 14.5895 60.4341 14.8604" stroke="#1D1D1B" stroke-width="0.1" stroke-miterlimit="10"/>
<path d="M58.5969 12.964C58.5969 12.964 58.887 15.8039 58.4712 16.6446" stroke="#1D1D1B" stroke-width="0.1" stroke-miterlimit="10"/>
<path d="M57.0503 11.5907C57.0503 11.5907 57.6884 14.3278 57.263 15.2527" stroke="#1D1D1B" stroke-width="0.1" stroke-miterlimit="10"/>
<path d="M56.093 14.0756C56.093 14.0756 58.9644 14.1316 59.4188 13.6646" stroke="#1D1D1B" stroke-width="0.1" stroke-miterlimit="10"/>
<path d="M55.3679 13.4217C55.3679 13.4217 57.4852 13.1975 58.2393 12.637" stroke="#1D1D1B" stroke-width="0.1" stroke-miterlimit="10"/>
<path d="M55.8899 10.6658C55.8899 10.6658 56.3733 13.0012 55.9769 13.9634" stroke="#1D1D1B" stroke-width="0.1" stroke-miterlimit="10"/>
<path d="M54.1787 12.4315C54.1787 12.4315 56.8954 12.3101 57.4562 11.9364" stroke="#1D1D1B" stroke-width="0.1" stroke-miterlimit="10"/>
<path d="M54.5269 9.68494C54.5269 9.68494 54.9909 12.4221 54.7106 12.8611" stroke="#1D1D1B" stroke-width="0.1" stroke-miterlimit="10"/>
<path d="M53.2214 11.7121C53.2214 11.7121 56.4892 11.5813 56.8083 11.2731" stroke="#1D1D1B" stroke-width="0.1" stroke-miterlimit="10"/>
<path d="M53.2214 8.82544C53.2214 8.82544 53.7049 11.0675 53.4245 11.8615" stroke="#1D1D1B" stroke-width="0.1" stroke-miterlimit="10"/>
<path d="M52.158 10.9928C52.158 10.9928 54.0336 10.9741 55.4548 10.3389" stroke="#1D1D1B" stroke-width="0.1" stroke-miterlimit="10"/>
<path d="M52.158 11.0956C52.4867 9.5075 51.5296 7.83533 51.5296 7.83533C51.5296 7.83533 49.6443 8.52662 49.0642 9.26461" stroke="#1D1D1B" stroke-width="0.1" stroke-miterlimit="10"/>
<path d="M51.1042 10.3389C51.1042 10.3389 53.2409 10.2642 53.995 9.32068" stroke="#1D1D1B" stroke-width="0.1" stroke-miterlimit="10"/>
<path d="M50.2632 9.8718C50.2632 9.8718 51.2977 9.07776 53.3666 8.91895" stroke="#1D1D1B" stroke-width="0.1" stroke-miterlimit="10"/>
<path d="M50.0408 7.05994C50.0408 7.05994 50.9012 9.10578 50.8915 10.2268" stroke="#1D1D1B" stroke-width="0.1" stroke-miterlimit="10"/>
<path d="M47.7688 8.68538C47.7688 8.68538 48.7163 7.96607 50.4662 7.27478" stroke="#1D1D1B" stroke-width="0.1" stroke-miterlimit="10"/>
<path d="M46.5701 8.21832C46.5701 8.21832 47.8173 7.17204 49.3158 6.70496" stroke="#1D1D1B" stroke-width="0.1" stroke-miterlimit="10"/>
<path d="M48.3198 6.25647C48.3198 6.25647 49.9828 8.94689 49.6637 9.5541" stroke="#1D1D1B" stroke-width="0.1" stroke-miterlimit="10"/>
<path d="M47.9427 6.08838C47.9427 6.08838 45.9898 7.34951 45.7771 7.97541" stroke="#1D1D1B" stroke-width="0.1" stroke-miterlimit="10"/>
<path d="M44.3752 7.40551C44.3752 7.40551 45.6031 5.92951 47.1016 5.74268" stroke="#1D1D1B" stroke-width="0.1" stroke-miterlimit="10"/>
<path d="M45.8738 5.27563C45.8738 5.27563 43.8242 6.08836 43.6501 7.15332" stroke="#1D1D1B" stroke-width="0.1" stroke-miterlimit="10"/>
<path d="M41.3491 6.76096C41.3491 6.76096 43.3117 4.99538 45.1583 5.0234" stroke="#1D1D1B" stroke-width="0.1" stroke-miterlimit="10"/>
<path d="M40.2954 6.84503C40.2954 6.84503 40.2568 5.45311 43.4279 4.48157" stroke="#1D1D1B" stroke-width="0.1" stroke-miterlimit="10"/>
<path d="M42.3546 6.85444C42.3546 6.85444 42.1709 5.29437 41.7842 5.1449" stroke="#1D1D1B" stroke-width="0.1" stroke-miterlimit="10"/>
<path d="M43.2249 7.03185C43.2249 7.03185 43.2539 4.50025 42.8188 4.67774" stroke="#1D1D1B" stroke-width="0.1" stroke-miterlimit="10"/>
<path d="M44.0852 4.67773C44.0852 4.67773 44.3076 6.77963 44.2012 7.34947" stroke="#1D1D1B" stroke-width="0.1" stroke-miterlimit="10"/>
<path d="M44.9939 5.02344C44.9939 5.02344 45.4579 7.20941 45.2646 7.76991" stroke="#1D1D1B" stroke-width="0.1" stroke-miterlimit="10"/>
<path d="M46.2992 5.43445C46.2992 5.43445 46.4732 7.69515 46.2412 8.09684" stroke="#1D1D1B" stroke-width="0.1" stroke-miterlimit="10"/>
<path d="M47.2854 5.8175C47.2854 5.8175 47.6914 8.06887 47.4207 8.53595" stroke="#1D1D1B" stroke-width="0.1" stroke-miterlimit="10"/>
<path d="M40.9431 3.80896C40.9431 3.80896 40.9915 6.01361 41.1945 6.69556" stroke="#1D1D1B" stroke-width="0.1" stroke-miterlimit="10"/>
<path d="M54.6621 51.8816C54.6621 51.8816 55.3099 52.3393 55.5322 52.8531" stroke="#1D1D1B" stroke-width="0.1" stroke-miterlimit="10"/>
<path d="M24.6427 8.84416C24.6427 8.84416 24.1109 7.53632 25.3001 4.48157" stroke="#1D1D1B" stroke-width="0.1" stroke-miterlimit="10"/>
<path d="M24.5171 5.1449C24.5171 5.1449 28.1039 5.35976 29.3415 5.89224" stroke="#1D1D1B" stroke-width="0.1" stroke-miterlimit="10"/>
<path d="M30.6176 3.80896C30.5112 3.83699 27.8332 3.79962 28.0168 7.40553" stroke="#1D1D1B" stroke-width="0.1" stroke-miterlimit="10"/>
<path d="M25.9575 4.15454C25.9575 4.15454 27.8428 4.52821 28.6356 4.8178" stroke="#1D1D1B" stroke-width="0.1" stroke-miterlimit="10"/>
<path d="M30.2695 4.82718C30.2695 4.82718 30.9173 5.30361 31.217 4.57495" stroke="#1D1D1B" stroke-width="0.1" stroke-miterlimit="10"/>
<path d="M29.6894 5.25696C29.6894 5.25696 28.6646 6.6769 29.8151 7.95672" stroke="#1D1D1B" stroke-width="0.1" stroke-miterlimit="10"/>
<path d="M28.1328 3.51941C28.1328 3.51941 28.7612 3.65019 28.9353 4.49095" stroke="#1D1D1B" stroke-width="0.1" stroke-miterlimit="10"/>
<path d="M31.9324 5.96699C31.9324 5.96699 30.4821 6.50881 29.5347 2.87488" stroke="#1D1D1B" stroke-width="0.1" stroke-miterlimit="10"/>
<path d="M29.8829 6.22859C29.8539 6.20991 31.014 7.25618 31.8842 6.00439C31.9132 5.95768 31.9905 5.94834 32.0195 5.99505C32.2322 6.35004 33.1604 6.91054 33.4794 5.89229C33.4794 5.89229 32.5706 5.84558 32.4449 4.81799" stroke="#1D1D1B" stroke-width="0.1" stroke-miterlimit="10"/>
<path d="M30.8593 2.24897C30.5015 4.05192 33.9047 2.18358 36.7181 2.80948C37.3079 2.94026 37.9266 2.92158 38.4874 2.71606C38.9901 2.52922 39.9569 2.56659 41.3395 2.22095" stroke="#1D1D1B" stroke-width="0.1" stroke-miterlimit="10"/>
<path d="M37.4529 1.9967C37.4529 1.9967 37.9072 2.43577 37.6462 2.87483" stroke="#1D1D1B" stroke-width="0.1" stroke-miterlimit="10"/>
<path d="M32.2031 3.06165C32.3965 3.54742 31.304 5.81746 40.653 3.81833" stroke="#1D1D1B" stroke-width="0.1" stroke-miterlimit="10"/>
<path d="M33.7887 4.56567C34.0207 4.61238 30.4145 6.25653 40.2953 6.406" stroke="#1D1D1B" stroke-width="0.1" stroke-miterlimit="10"/>
<path d="M39.0867 4.12659C39.0867 4.12659 40.9139 5.59324 40.3048 6.76096" stroke="#1D1D1B" stroke-width="0.1" stroke-miterlimit="10"/>
<path d="M40.8369 3.79028C40.9819 4.81788 39.087 5.28496 39.0193 6.38729" stroke="#1D1D1B" stroke-width="0.1" stroke-miterlimit="10"/>
<path d="M38.4487 4.23877C38.5261 5.11689 39.5799 6.10712 39.5122 6.37803" stroke="#1D1D1B" stroke-width="0.1" stroke-miterlimit="10"/>
<path d="M36.9212 4.50964L36.1768 5.25698" stroke="#1D1D1B" stroke-width="0.1" stroke-miterlimit="10"/>
<path d="M36.8921 5.44382L37.4528 5.02344" stroke="#1D1D1B" stroke-width="0.1" stroke-miterlimit="10"/>
<path d="M38.6809 4.95801L37.5691 5.89218" stroke="#1D1D1B" stroke-width="0.1" stroke-miterlimit="10"/>
<path d="M60.7529 19.4097C63.373 23.4173 64.8618 27.9574 64.8618 32.9926C64.8618 47.5844 52.187 59.4111 36.5634 59.4111C20.9397 59.4111 8.26489 47.5844 8.26489 33.002C8.26489 20.5868 17.4399 10.1708 29.8054 7.34021" stroke="#1D1D1B" stroke-width="0.1" stroke-miterlimit="10"/>
<path d="M21.7714 19.5591L23.2409 20.5587L24.3817 19.2135L24.4978 20.9417L26.2863 20.9698L24.9618 22.1375L26.064 23.5107L24.2851 23.2305L23.8597 24.912L22.9799 23.4079L21.3556 24.1366L22.0324 22.5298L20.4275 21.7545L22.1387 21.2593L21.7714 19.5591Z" fill="white" stroke="#1D1D1B" stroke-width="0.25" stroke-miterlimit="10"/>
<path d="M43.215 26.5L43.4567 28.2189L45.255 28.1161L44.0174 29.3679L45.2066 30.6664L43.4277 30.5076L43.128 32.2171L42.1322 30.7692L40.5659 31.6099L41.117 29.9658L39.4541 29.3025L41.1363 28.6953L40.6433 27.0231L42.1805 27.9106L43.215 26.5Z" fill="white" stroke="#1D1D1B" stroke-width="0.25" stroke-miterlimit="10"/>
<path d="M42.1129 39.186L42.925 40.4659L44.3172 39.7932L43.7758 41.2039L45.197 41.8298L43.7178 42.3062L44.0949 43.7635L42.7897 42.9508L41.8422 44.1372L41.6972 42.6425L40.1406 42.6798L41.2525 41.6242L40.2566 40.4752L41.8035 40.662L42.1129 39.186Z" fill="white" stroke="#1D1D1B" stroke-width="0.25" stroke-miterlimit="10"/>
<path d="M51.607 41.6616L52.4191 42.9508L53.8016 42.2688L53.2699 43.6794L54.6911 44.3053L53.2119 44.7818L53.5889 46.2391L52.2837 45.4263L51.3363 46.6221L51.1816 45.1181L49.625 45.1554L50.7465 44.0998L49.7507 42.9508L51.2879 43.1376L51.607 41.6616Z" fill="white" stroke="#1D1D1B" stroke-width="0.25" stroke-miterlimit="10"/>
<path d="M60.1825 31.4419L59.9021 33.1514L61.6424 33.5531L60.0858 34.4125L60.8399 35.9819L59.177 35.3374L58.3843 36.8881L57.8622 35.2253L56.1123 35.5896L57.1371 34.1696L55.7449 33.0673L57.5335 32.9552L57.5625 31.2177L58.771 32.5068L60.1825 31.4419Z" fill="white" stroke="#1D1D1B" stroke-width="0.25" stroke-miterlimit="10"/>
<path d="M34.4557 21.4647L34.9391 23.1369L36.6987 22.8006L35.6545 24.2019L37.0177 25.3322L35.2292 25.4163L35.1711 27.1445L33.982 25.846L32.5511 26.8829L32.8605 25.1734L31.1299 24.7343L32.7058 23.9123L31.9807 22.3242L33.6339 23.0061L34.4557 21.4647Z" fill="white" stroke="#1D1D1B" stroke-width="0.25" stroke-miterlimit="10"/>
<path d="M11.4167 26.8176L13.2053 26.6775V24.9399L14.4332 26.2011L15.8351 25.1174L15.574 26.8363L17.3239 27.2193L15.7771 28.0975L16.5602 29.6575L14.8876 29.0316L14.1141 30.601L13.5727 28.9476L11.8228 29.3306L12.8283 27.8919L11.4167 26.8176Z" fill="white" stroke="#1D1D1B" stroke-width="0.25" stroke-miterlimit="10"/>
<path d="M35.877 4.12662C36.3949 4.12662 36.8148 3.80039 36.8148 3.39797C36.8148 2.99554 36.3949 2.66931 35.877 2.66931C35.3591 2.66931 34.9392 2.99554 34.9392 3.39797C34.9392 3.80039 35.3591 4.12662 35.877 4.12662Z" fill="#F39200" stroke="#1D1D1B" stroke-width="0.1" stroke-miterlimit="10"/>
<path d="M36.2348 3.32323C36.2542 3.66888 36.1091 4.01452 35.8771 4.13596C35.645 4.01452 35.4904 3.66888 35.5194 3.32323C35.5387 3.0243 35.6837 2.77207 35.8771 2.66931C36.0705 2.77207 36.2155 3.0243 36.2348 3.32323Z" fill="#EAB260" stroke="#1D1D1B" stroke-width="0.1" stroke-miterlimit="10"/>
</svg>
