<svg width="71" height="68" viewBox="0 0 71 68" fill="none" xmlns="http://www.w3.org/2000/svg">
<path d="M4.86185 61.4194C4.71683 60.1115 3.86604 59.196 3.47931 58.9905C3.3923 58.9438 3.30529 58.9345 3.20861 58.9438C-0.155884 59.523 1.18798 61.4567 1.70039 62.064C1.79707 62.1761 1.94209 62.2321 2.09678 62.2041C7.25953 61.3353 3.67268 60.4572 13.1764 57.8508C13.1764 57.8508 17.5657 61.41 19.0063 62.1013C17.5754 63.3531 14.6363 63.8763 12.3353 64.6703C11.8615 64.8291 11.4168 65.0627 10.9914 65.3336C9.66689 66.2024 5.91567 68.2856 4.49446 65.8754C4.33011 65.6045 4.14641 65.3429 3.95305 65.0907L1.70039 62.0826" fill="white"/>
<path d="M4.86185 61.4194C4.71683 60.1115 3.86604 59.196 3.47931 58.9905C3.3923 58.9438 3.30529 58.9345 3.20861 58.9438C-0.155884 59.523 1.18798 61.4567 1.70039 62.064C1.79707 62.1761 1.94209 62.2321 2.09678 62.2041C7.25953 61.3353 3.67268 60.4572 13.1764 57.8508C13.1764 57.8508 17.5657 61.41 19.0062 62.1013C17.5754 63.3531 14.6363 63.8763 12.3353 64.6703C11.8615 64.8291 11.4168 65.0627 10.9914 65.3336C9.66689 66.2024 5.91567 68.2856 4.49446 65.8754C4.33011 65.6045 4.14641 65.3429 3.95305 65.0907L1.70039 62.0826" stroke="#1D1D1B" stroke-width="0.1" stroke-miterlimit="10"/>
<path d="M3.71129 59.1494L2.46411 60.5507L3.43092 61.9239" stroke="#1D1D1B" stroke-width="0.1" stroke-miterlimit="10"/>
<path d="M8.52589 64.9504L7.2207 65.7725L7.39473 65.0719" stroke="#1D1D1B" stroke-width="0.1" stroke-miterlimit="10"/>
<path d="M6.37976 65.3616C7.20204 65.3616 7.86864 64.6882 7.86864 63.8575C7.86864 63.0269 7.20204 62.3535 6.37976 62.3535C5.55747 62.3535 4.89087 63.0269 4.89087 63.8575C4.89087 64.6882 5.55747 65.3616 6.37976 65.3616Z" stroke="#1D1D1B" stroke-width="0.1" stroke-miterlimit="10"/>
<path d="M7.45288 61.9051L7.86861 61.6435L9.93758 63.7548L9.8409 60.7374L10.1503 60.6533" stroke="#1D1D1B" stroke-width="0.1" stroke-miterlimit="10"/>
<path d="M12.1516 62.83L11.4749 60.1116" stroke="#1D1D1B" stroke-width="0.1" stroke-miterlimit="10"/>
<path d="M12.5382 62.7646L11.9001 62.9608" stroke="#1D1D1B" stroke-width="0.1" stroke-miterlimit="10"/>
<path d="M14.1819 59.8407L14.0852 59.6258C14.0852 59.6258 12.5673 59.5604 12.7317 60.4479C12.8574 61.1485 13.8145 61.1485 14.2302 61.1112C14.3656 61.1018 14.5009 61.1579 14.5783 61.27C14.7523 61.5315 14.9263 62.0267 14.2689 62.5498C14.2689 62.5498 13.7275 63.0075 13.2054 62.5498L13.2344 62.3536" stroke="#1D1D1B" stroke-width="0.1" stroke-miterlimit="10"/>
<path d="M11.1172 60.1864L11.4749 60.1117L11.8326 60.0276" stroke="#1D1D1B" stroke-width="0.1" stroke-miterlimit="10"/>
<path d="M51.1721 54.3198C34.514 43.2592 20.1279 53.5818 20.1279 53.5818C22.4096 55.1419 24.9813 56.2909 27.7947 57.085C29.6026 55.3381 40.8563 55.3007 43.138 57.5147C46.3478 56.7673 51.1721 54.3198 51.1721 54.3198Z" fill="white" stroke="#1D1D1B" stroke-width="0.1" stroke-miterlimit="10"/>
<path d="M27.6787 52.5541L27.64 52.2832C27.64 52.2832 25.7451 52.4794 25.9384 54.0955C26.1318 55.7116 27.9687 55.6742 28.8775 54.7774" stroke="#1D1D1B" stroke-width="0.1" stroke-miterlimit="10"/>
<path d="M30.3954 54.5906C31.2284 54.5906 31.9036 53.8754 31.9036 52.9932C31.9036 52.111 31.2284 51.3958 30.3954 51.3958C29.5625 51.3958 28.8872 52.111 28.8872 52.9932C28.8872 53.8754 29.5625 54.5906 30.3954 54.5906Z" stroke="#1D1D1B" stroke-width="0.1" stroke-miterlimit="10"/>
<path d="M34.9684 51.0129H35.3165L35.3068 53.7594L32.8318 51.2558L32.9091 54.077" stroke="#1D1D1B" stroke-width="0.1" stroke-miterlimit="10"/>
<path d="M36.4575 51.4334L36.4769 51.041L38.7972 51.2185V51.6109" stroke="#1D1D1B" stroke-width="0.1" stroke-miterlimit="10"/>
<path d="M37.6272 51.1809L37.4822 54.1609" stroke="#1D1D1B" stroke-width="0.1" stroke-miterlimit="10"/>
<path d="M37.1343 54.1611L37.811 54.2172" stroke="#1D1D1B" stroke-width="0.1" stroke-miterlimit="10"/>
<path d="M39.8414 54.4787L39.0776 54.3853" stroke="#1D1D1B" stroke-width="0.1" stroke-miterlimit="10"/>
<path d="M39.5415 51.3772L40.0443 51.4986L40.8274 51.6855C41.9102 52.0685 41.9296 53.2736 39.7542 53.1148C41.4945 53.5632 40.547 54.7215 41.4945 54.8523" stroke="#1D1D1B" stroke-width="0.1" stroke-miterlimit="10"/>
<path d="M40.0443 51.4985L39.4546 54.3104" stroke="#1D1D1B" stroke-width="0.1" stroke-miterlimit="10"/>
<path d="M42.2871 55.2166L42.6835 55.3941L44.6848 53.124V55.0391V56.1507L45.0038 56.3563" stroke="#1D1D1B" stroke-width="0.1" stroke-miterlimit="10"/>
<path d="M44.6366 55.0204L43.4668 54.5813" stroke="#1D1D1B" stroke-width="0.1" stroke-miterlimit="10"/>
<path d="M66.1477 61.4287C66.2928 60.1209 67.1339 59.196 67.5206 58.9905C67.6076 58.9438 67.6946 58.9345 67.7913 58.9438C71.1558 59.523 69.8119 61.4567 69.2995 62.064C69.2028 62.1761 69.0578 62.2321 68.9031 62.2041C63.7404 61.3353 67.3272 60.4572 57.8235 57.8508C57.8235 57.8508 53.4342 61.41 51.9937 62.1013C53.4245 63.3531 56.3636 63.8763 58.6646 64.6703C59.1384 64.8291 59.5831 65.0627 60.0085 65.3336C61.333 66.2024 65.0842 68.2856 66.5055 65.8754C66.6698 65.6045 66.8535 65.3429 67.0469 65.0907L69.2995 62.0826" fill="white"/>
<path d="M66.1477 61.4287C66.2928 60.1209 67.1339 59.196 67.5206 58.9905C67.6076 58.9438 67.6946 58.9345 67.7913 58.9438C71.1558 59.523 69.8119 61.4567 69.2995 62.064C69.2028 62.1761 69.0578 62.2321 68.9031 62.2041C63.7404 61.3353 67.3272 60.4572 57.8235 57.8508C57.8235 57.8508 53.4342 61.41 51.9937 62.1013C53.4245 63.3531 56.3636 63.8763 58.6646 64.6703C59.1384 64.8291 59.5831 65.0627 60.0085 65.3336C61.333 66.2024 65.0842 68.2856 66.5055 65.8754C66.6698 65.6045 66.8535 65.3429 67.0469 65.0907L69.2995 62.0826" stroke="#1D1D1B" stroke-width="0.1" stroke-miterlimit="10"/>
<path d="M67.2983 59.1306L68.5359 60.5506L67.5594 61.9238" stroke="#1D1D1B" stroke-width="0.1" stroke-miterlimit="10"/>
<path d="M56.1799 62.1013L55.7932 61.8023L57.1951 59.3455L58.1619 62.9887L59.4477 60.2703L59.8635 60.4011" stroke="#1D1D1B" stroke-width="0.1" stroke-miterlimit="10"/>
<path d="M61.0622 64.0818C61.8792 64.0818 62.5414 63.3833 62.5414 62.5217C62.5414 61.6601 61.8792 60.9617 61.0622 60.9617C60.2453 60.9617 59.583 61.6601 59.583 62.5217C59.583 63.3833 60.2453 64.0818 61.0622 64.0818Z" stroke="#1D1D1B" stroke-width="0.1" stroke-miterlimit="10"/>
<path d="M62.4158 64.2685C62.4158 64.2685 62.1547 64.9691 62.9862 65.3054C63.7113 65.6043 64.4171 65.0625 64.1947 64.4179C64.1464 64.2685 64.0497 64.147 63.924 64.0443C63.0055 63.2782 63.3826 62.5309 64.214 62.5216C65.0745 62.5122 65.1518 63.4557 65.1518 63.4557" stroke="#1D1D1B" stroke-width="0.1" stroke-miterlimit="10"/>
<path d="M65.8963 63.4652C65.8963 63.4652 66.9501 63.2317 66.8051 64.0911C66.7568 64.3527 66.5247 64.5395 66.2733 64.6423C65.8576 64.8104 65.6063 65.0066 65.4419 65.2775" stroke="#1D1D1B" stroke-width="0.1" stroke-miterlimit="10"/>
<path d="M65.1712 65.698L65.1519 65.7447" stroke="#1D1D1B" stroke-width="0.1" stroke-miterlimit="10"/>
<path d="M35.4032 1.06251C33.953 1.06251 31.913 1.6417 30.5885 2.28628C28.6452 3.48202 27.4947 3.76228 26.2475 4.07055C25.5418 4.24805 24.9327 4.56567 24.7103 4.9767C24.604 5.18222 24.4106 5.33169 24.1882 5.41576C11.6777 9.79704 2.9668 21.3901 2.9668 34.9917C2.9668 52.358 17.5366 66.4267 35.4999 66.4267C53.4729 66.4267 68.033 52.3487 68.033 34.9917C68.033 19.9982 57.7462 7.76054 40.8657 3.79964C39.5218 3.46334 42.4416 3.19243 41.5134 2.51982C40.5853 0.539375 36.4184 1.06251 35.4032 1.06251ZM39.5992 7.02254C40.3823 6.74229 42.2579 6.39665 45.2163 7.76988C45.3033 7.79791 45.4 7.82593 45.487 7.85396C45.661 7.91001 45.8351 7.96606 46.0091 8.02211C53.8306 10.6845 60.0085 16.6259 62.6672 24.0993C63.5857 26.6869 64.0884 29.4614 64.0884 32.348C64.0884 46.6222 51.8583 58.1966 36.7761 58.1966C19.5862 58.3554 9.64744 46.7997 9.46375 32.6843C9.46375 32.6656 9.46375 32.6469 9.46375 32.6283C9.46375 32.5348 9.46375 32.4414 9.46375 32.348C9.74412 20.7736 18.0297 11.6 29.2833 8.09685C33.4793 6.95715 35.8769 7.47095 38.4293 7.26543C38.8257 7.2374 39.2221 7.15333 39.5992 7.02254Z" fill="#F8EF1C" stroke="#1D1D1B" stroke-width="0.25" stroke-miterlimit="10"/>
<path d="M27.4754 3.73438C27.4754 3.73438 26.1412 4.93946 26.6343 9.01246" stroke="#1D1D1B" stroke-width="0.1" stroke-miterlimit="10"/>
<path d="M22.6899 5.97632C22.6899 5.97632 27.7657 6.06039 28.7035 8.27439" stroke="#1D1D1B" stroke-width="0.1" stroke-miterlimit="10"/>
<path d="M26.7599 8.99391C26.7599 8.99391 24.9327 6.77058 19.6636 7.39648" stroke="#1D1D1B" stroke-width="0.1" stroke-miterlimit="10"/>
<path d="M17.5464 8.62951C17.5464 8.62951 23.9467 8.46136 24.0723 10.2363" stroke="#1D1D1B" stroke-width="0.1" stroke-miterlimit="10"/>
<path d="M14.8877 10.5071C14.8877 10.5071 21.3073 9.76911 21.781 11.544" stroke="#1D1D1B" stroke-width="0.1" stroke-miterlimit="10"/>
<path d="M12.103 12.9826C12.103 12.9826 19.3734 10.7032 20.0792 12.7023" stroke="#1D1D1B" stroke-width="0.1" stroke-miterlimit="10"/>
<path d="M10.4888 14.7204C10.4888 14.7204 17.4111 12.7867 18.0299 14.3561" stroke="#1D1D1B" stroke-width="0.1" stroke-miterlimit="10"/>
<path d="M9.05762 16.514C9.05762 16.514 12.8282 14.8231 16.415 15.9067" stroke="#1D1D1B" stroke-width="0.1" stroke-miterlimit="10"/>
<path d="M7.44336 18.9147C7.44336 18.9147 11.3009 16.71 15.0425 17.4574" stroke="#1D1D1B" stroke-width="0.1" stroke-miterlimit="10"/>
<path d="M6.13794 21.2969C6.16694 21.2315 9.2414 18.3449 13.534 19.4846" stroke="#1D1D1B" stroke-width="0.1" stroke-miterlimit="10"/>
<path d="M12.1128 21.9041C12.1128 21.9041 9.5314 20.5215 5.09375 23.6604" stroke="#1D1D1B" stroke-width="0.1" stroke-miterlimit="10"/>
<path d="M3.86597 27.5557C3.86597 27.5557 8.47764 21.8946 11.117 24.1273" stroke="#1D1D1B" stroke-width="0.1" stroke-miterlimit="10"/>
<path d="M3.33398 30.2744C3.33398 30.2744 7.39458 25.5474 10.4884 25.3232" stroke="#1D1D1B" stroke-width="0.1" stroke-miterlimit="10"/>
<path d="M10.1018 27.3315C10.1018 27.3315 8.00387 26.5375 2.9668 33.7119" stroke="#1D1D1B" stroke-width="0.1" stroke-miterlimit="10"/>
<path d="M9.46375 29.8164C9.46375 29.8164 6.72768 30.1901 3.06348 37.8129" stroke="#1D1D1B" stroke-width="0.1" stroke-miterlimit="10"/>
<path d="M9.47361 33.0487C9.47361 33.0487 6.07044 32.5723 3.46973 40.4754" stroke="#1D1D1B" stroke-width="0.1" stroke-miterlimit="10"/>
<path d="M4.10742 43.2686C4.10742 43.2686 6.39876 36.0287 9.46354 35.6831" stroke="#1D1D1B" stroke-width="0.1" stroke-miterlimit="10"/>
<path d="M10.0049 37.9346C10.0049 37.9346 5.84766 38.3736 5.21924 46.501" stroke="#1D1D1B" stroke-width="0.1" stroke-miterlimit="10"/>
<path d="M10.6337 40.4753C10.6337 40.4753 6.75684 42.3063 6.4668 49.1818" stroke="#1D1D1B" stroke-width="0.1" stroke-miterlimit="10"/>
<path d="M11.552 43.0352C11.552 43.0352 8.59361 43.5022 8.26489 52.1807" stroke="#1D1D1B" stroke-width="0.1" stroke-miterlimit="10"/>
<path d="M12.7511 45.5012C12.7511 45.5012 8.87426 47.4723 10.8272 55.4689" stroke="#1D1D1B" stroke-width="0.1" stroke-miterlimit="10"/>
<path d="M13.0603 57.7484C13.0603 57.7484 11.4264 48.8831 14.1141 47.678" stroke="#1D1D1B" stroke-width="0.1" stroke-miterlimit="10"/>
<path d="M16.0961 50.1255C16.0961 50.1255 13.5534 51.5361 15.8447 60.0464" stroke="#1D1D1B" stroke-width="0.1" stroke-miterlimit="10"/>
<path d="M17.9039 51.8723C17.9039 51.8723 15.4966 56.2256 19.0254 62.1015" stroke="#1D1D1B" stroke-width="0.1" stroke-miterlimit="10"/>
<path d="M23.6664 64.2782C23.5214 64.026 17.9042 61.1674 19.9442 53.4604" stroke="#1D1D1B" stroke-width="0.1" stroke-miterlimit="10"/>
<path d="M22.5155 55.0112C22.5155 55.0112 19.6828 57.9165 25.2999 64.8481" stroke="#1D1D1B" stroke-width="0.1" stroke-miterlimit="10"/>
<path d="M24.7008 56.0295C24.7008 56.0295 23.2603 62.4006 29.6606 65.9224" stroke="#1D1D1B" stroke-width="0.1" stroke-miterlimit="10"/>
<path d="M27.7944 57.085C27.7944 57.085 25.0583 61.8679 32.8701 66.3239" stroke="#1D1D1B" stroke-width="0.1" stroke-miterlimit="10"/>
<path d="M30.3854 57.6736C30.3854 57.6736 28.4132 62.8115 36.631 66.4268" stroke="#1D1D1B" stroke-width="0.1" stroke-miterlimit="10"/>
<path d="M33.6051 58.0847C33.6051 58.0847 31.1301 61.4664 39.8797 66.1466" stroke="#1D1D1B" stroke-width="0.1" stroke-miterlimit="10"/>
<path d="M36.4378 58.0847C36.4378 58.0847 35.4419 62.2698 43.7661 65.3993" stroke="#1D1D1B" stroke-width="0.1" stroke-miterlimit="10"/>
<path d="M13.4372 11.7214C13.4372 11.7214 13.2052 15.7477 14.259 17.2985" stroke="#1D1D1B" stroke-width="0.1" stroke-miterlimit="10"/>
<path d="M15.429 10.0867C15.429 10.0867 14.5685 12.6276 15.6127 15.7104" stroke="#1D1D1B" stroke-width="0.1" stroke-miterlimit="10"/>
<path d="M17.3048 8.77881C17.3048 8.77881 16.28 11.0115 17.4208 13.8794" stroke="#1D1D1B" stroke-width="0.1" stroke-miterlimit="10"/>
<path d="M19.4508 7.50854C19.4508 7.50854 18.513 9.33953 18.9191 11.9552" stroke="#1D1D1B" stroke-width="0.1" stroke-miterlimit="10"/>
<path d="M21.6747 6.41553C21.6747 6.41553 20.2341 7.16287 20.6305 10.6754" stroke="#1D1D1B" stroke-width="0.1" stroke-miterlimit="10"/>
<path d="M23.7822 5.55591C23.7822 5.55591 22.245 7.58307 22.4577 9.89982" stroke="#1D1D1B" stroke-width="0.1" stroke-miterlimit="10"/>
<path d="M12.0161 13.0762C12.0161 13.0762 11.1943 15.2808 12.2192 19.223" stroke="#1D1D1B" stroke-width="0.1" stroke-miterlimit="10"/>
<path d="M10.2953 14.9443C10.2953 14.9443 9.5412 20.4933 10.624 21.605" stroke="#1D1D1B" stroke-width="0.1" stroke-miterlimit="10"/>
<path d="M8.44877 17.364C8.44877 17.364 7.91703 22.4553 9.96667 25.3325" stroke="#1D1D1B" stroke-width="0.1" stroke-miterlimit="10"/>
<path d="M6.76636 20.0823C6.76636 20.0823 6.89204 23.5481 8.85466 25.7994" stroke="#1D1D1B" stroke-width="0.1" stroke-miterlimit="10"/>
<path d="M8.46785 27.8082C8.46785 27.8082 5.41275 24.0154 5.66412 22.3059" stroke="#1D1D1B" stroke-width="0.1" stroke-miterlimit="10"/>
<path d="M8.60342 30.1995C8.54541 30.2369 6.87283 29.2373 4.55249 25.1643" stroke="#1D1D1B" stroke-width="0.1" stroke-miterlimit="10"/>
<path d="M3.93359 27.2664C3.93359 27.2664 5.96389 31.3954 8.45826 33.2264" stroke="#1D1D1B" stroke-width="0.1" stroke-miterlimit="10"/>
<path d="M8.31344 35.5709C8.31344 35.5709 4.18516 32.2172 3.46973 29.8164" stroke="#1D1D1B" stroke-width="0.1" stroke-miterlimit="10"/>
<path d="M3.06348 33.0393C3.06348 33.0393 5.58685 37.3552 8.84499 38.3828" stroke="#1D1D1B" stroke-width="0.1" stroke-miterlimit="10"/>
<path d="M9.64744 41.1761C9.64744 41.1761 6.18627 40.3353 3.01514 36.636" stroke="#1D1D1B" stroke-width="0.1" stroke-miterlimit="10"/>
<path d="M10.6143 43.5395C10.6143 43.5395 5.7513 42.7455 3.21826 38.8687" stroke="#1D1D1B" stroke-width="0.1" stroke-miterlimit="10"/>
<path d="M11.9969 46.1085C11.9969 46.1085 6.03172 45.1836 3.77905 41.9888" stroke="#1D1D1B" stroke-width="0.1" stroke-miterlimit="10"/>
<path d="M13.4181 48.1823C13.4181 48.1823 7.59789 47.8366 4.52344 44.623" stroke="#1D1D1B" stroke-width="0.1" stroke-miterlimit="10"/>
<path d="M14.8874 50.1255C14.8874 50.1255 10.2661 51.1157 5.51904 47.2202" stroke="#1D1D1B" stroke-width="0.1" stroke-miterlimit="10"/>
<path d="M17.5946 52.601C17.5946 52.601 12.7315 53.5165 6.88232 49.9573" stroke="#1D1D1B" stroke-width="0.1" stroke-miterlimit="10"/>
<path d="M19.7604 54.2265C19.7604 54.2265 15.1197 55.8707 8.54541 52.6011" stroke="#1D1D1B" stroke-width="0.1" stroke-miterlimit="10"/>
<path d="M21.9356 56.2068C21.9356 56.2068 19.4509 58.3087 10.7109 55.3474" stroke="#1D1D1B" stroke-width="0.1" stroke-miterlimit="10"/>
<path d="M24.575 56.9822C24.575 56.9822 20.3501 59.7473 13.4761 58.1219" stroke="#1D1D1B" stroke-width="0.1" stroke-miterlimit="10"/>
<path d="M15.9221 60.0464C15.9221 60.0464 25.3775 60.4668 27.4561 58.0566" stroke="#1D1D1B" stroke-width="0.1" stroke-miterlimit="10"/>
<path d="M19.3252 62.2698C27.166 62.5034 30.0954 59.0376 30.0954 59.0376" stroke="#1D1D1B" stroke-width="0.1" stroke-miterlimit="10"/>
<path d="M33.286 59.4111C33.286 59.4111 32.0775 62.0735 22.7188 63.9045" stroke="#1D1D1B" stroke-width="0.1" stroke-miterlimit="10"/>
<path d="M36.5247 59.4111C36.5247 59.4111 31.246 64.7172 25.7642 64.9881" stroke="#1D1D1B" stroke-width="0.1" stroke-miterlimit="10"/>
<path d="M40.0825 58.0286C40.0825 58.0286 40.9527 61.0646 30.0181 65.9223" stroke="#1D1D1B" stroke-width="0.1" stroke-miterlimit="10"/>
<path d="M43.0314 57.5146C43.0314 57.5146 44.8877 62.2789 34.5042 66.4173" stroke="#1D1D1B" stroke-width="0.1" stroke-miterlimit="10"/>
<path d="M39.7249 59.3457C39.7249 59.3457 40.885 63.2038 49.0062 63.6055" stroke="#1D1D1B" stroke-width="0.1" stroke-miterlimit="10"/>
<path d="M43.1377 58.8694C43.1377 58.8694 43.3697 61.4664 52.361 61.8868" stroke="#1D1D1B" stroke-width="0.1" stroke-miterlimit="10"/>
<path d="M45.7385 56.7673C45.8352 56.7767 45.3711 60.3266 55.3099 59.9342" stroke="#1D1D1B" stroke-width="0.1" stroke-miterlimit="10"/>
<path d="M48.3199 55.7771C48.3199 55.7771 47.9815 58.9813 57.4562 58.1966" stroke="#1D1D1B" stroke-width="0.1" stroke-miterlimit="10"/>
<path d="M50.6982 54.5908C50.6982 54.5908 51.5297 58.0379 59.9119 55.7772" stroke="#1D1D1B" stroke-width="0.1" stroke-miterlimit="10"/>
<path d="M52.6416 53.3857C52.6416 53.3857 53.1637 56.6461 61.3815 54.049" stroke="#1D1D1B" stroke-width="0.1" stroke-miterlimit="10"/>
<path d="M55.5225 52.8625C55.5225 52.8625 55.9769 54.1797 62.1354 53.0494" stroke="#1D1D1B" stroke-width="0.1" stroke-miterlimit="10"/>
<path d="M56.7603 51.5081C58.3071 51.4427 60.6662 52.218 64.0887 50.0227" stroke="#1D1D1B" stroke-width="0.1" stroke-miterlimit="10"/>
<path d="M57.7559 49.0043C58.2199 49.3873 61.5747 50.7886 65.3356 47.5657" stroke="#1D1D1B" stroke-width="0.1" stroke-miterlimit="10"/>
<path d="M60.25 47.4536C60.25 47.4536 62.435 48.2663 66.2926 45.1555" stroke="#1D1D1B" stroke-width="0.1" stroke-miterlimit="10"/>
<path d="M60.521 45.1652C61.0044 45.0531 63.3247 45.8938 62.8703 51.994" stroke="#1D1D1B" stroke-width="0.1" stroke-miterlimit="10"/>
<path d="M66.9213 43.2126C65.9158 44.8661 62.2999 46.1273 61.0044 45.2491" stroke="#1D1D1B" stroke-width="0.1" stroke-miterlimit="10"/>
<path d="M61.5459 43.2594C62.039 43.5396 64.8814 44.1281 67.5401 40.5222" stroke="#1D1D1B" stroke-width="0.1" stroke-miterlimit="10"/>
<path d="M63.373 41.475C64.0498 41.8019 65.6644 42.2317 67.8977 37.8784" stroke="#1D1D1B" stroke-width="0.1" stroke-miterlimit="10"/>
<path d="M63.9724 39.6066C63.9724 39.6066 66.0124 39.6813 68.0427 35.3374" stroke="#1D1D1B" stroke-width="0.1" stroke-miterlimit="10"/>
<path d="M64.0884 32.5444C64.0884 32.5444 66.9405 34.1419 68.033 35.5712" stroke="#1D1D1B" stroke-width="0.1" stroke-miterlimit="10"/>
<path d="M63.8179 36.0101C63.8179 36.0101 66.0125 36.3745 67.8108 31.1804" stroke="#1D1D1B" stroke-width="0.1" stroke-miterlimit="10"/>
<path d="M64.8037 31.2366C64.8037 31.2366 67.2594 32.9648 68.0135 33.7121" stroke="#1D1D1B" stroke-width="0.1" stroke-miterlimit="10"/>
<path d="M66.3894 24.9495C66.3604 27.2288 64.8908 28.929 64.6008 29.2186C64.5814 29.2467 64.6008 29.3868 64.6201 29.4055C65.0068 29.6577 67.2692 31.1711 67.8783 31.8343" stroke="#1D1D1B" stroke-width="0.1" stroke-miterlimit="10"/>
<path d="M63.7983 25.7903C63.7983 25.7903 65.6063 27.4811 67.0855 27.3036" stroke="#1D1D1B" stroke-width="0.1" stroke-miterlimit="10"/>
<path d="M64.3301 27.7708C64.3301 27.7708 66.8051 29.0879 67.6656 30.0968" stroke="#1D1D1B" stroke-width="0.1" stroke-miterlimit="10"/>
<path d="M64.8037 31.2364C64.8037 31.2364 66.921 29.1625 67.0854 27.4717" stroke="#1D1D1B" stroke-width="0.1" stroke-miterlimit="10"/>
<path d="M63.4312 24.3051C63.4312 24.3051 64.775 23.866 64.9007 21.4185" stroke="#1D1D1B" stroke-width="0.1" stroke-miterlimit="10"/>
<path d="M66.0607 24.0525C64.8908 24.0525 63.0249 23.081 63.0249 23.081C63.0249 23.081 64.1174 21.1659 64.0497 19.8301" stroke="#1D1D1B" stroke-width="0.1" stroke-miterlimit="10"/>
<path d="M66.873 26.4909C66.5056 25.6315 63.4312 24.3049 63.4312 24.3049" stroke="#1D1D1B" stroke-width="0.1" stroke-miterlimit="10"/>
<path d="M64.0596 26.416C64.0596 26.416 65.5194 25.9302 65.6645 23.0903" stroke="#1D1D1B" stroke-width="0.1" stroke-miterlimit="10"/>
<path d="M65.4323 22.5487C64.4558 22.6982 62.3481 21.792 62.3481 21.792C62.3481 21.792 63.431 19.849 63.0249 18.2795" stroke="#1D1D1B" stroke-width="0.1" stroke-miterlimit="10"/>
<path d="M64.6395 20.9137C63.5277 21.4743 61.5071 20.428 61.5071 20.428C61.5071 20.428 62.1355 19.1295 61.8551 16.5698" stroke="#1D1D1B" stroke-width="0.1" stroke-miterlimit="10"/>
<path d="M64.978 33.0769C64.978 33.0769 67.5981 30.6014 67.4917 29.1067" stroke="#1D1D1B" stroke-width="0.1" stroke-miterlimit="10"/>
<path d="M64.8135 34.6462C64.8135 34.6462 66.9211 36.1596 67.8202 38.7193" stroke="#1D1D1B" stroke-width="0.1" stroke-miterlimit="10"/>
<path d="M64.3203 38.2053C64.3203 38.2053 67.4915 35.7484 68.0039 33.3569" stroke="#1D1D1B" stroke-width="0.1" stroke-miterlimit="10"/>
<path d="M64.5913 35.8606C64.5913 35.8606 67.4531 40.5969 67.3757 41.3629" stroke="#1D1D1B" stroke-width="0.1" stroke-miterlimit="10"/>
<path d="M66.1961 45.0716C66.1187 44.726 67.0468 42.1009 63.9724 39.6067" stroke="#1D1D1B" stroke-width="0.1" stroke-miterlimit="10"/>
<path d="M63.373 41.4751C63.9725 41.7834 65.558 43.3435 65.268 47.6967" stroke="#1D1D1B" stroke-width="0.1" stroke-miterlimit="10"/>
<path d="M61.5459 43.2593C63.4795 43.1846 64.5913 47.3323 64.0886 50.0227" stroke="#1D1D1B" stroke-width="0.1" stroke-miterlimit="10"/>
<path d="M59.5156 46.7905C59.9314 46.8279 63.3732 47.6033 61.3816 54.0491" stroke="#1D1D1B" stroke-width="0.1" stroke-miterlimit="10"/>
<path d="M59.1096 48.967C59.1096 48.967 60.5888 52.0311 58.4521 57.2718" stroke="#1D1D1B" stroke-width="0.1" stroke-miterlimit="10"/>
<path d="M57.379 50.9009C57.5917 51.1344 58.4522 55.5998 56.0835 59.3458" stroke="#1D1D1B" stroke-width="0.1" stroke-miterlimit="10"/>
<path d="M55.5226 52.8625C55.5226 52.8625 56.6247 57.3653 53.5986 61.1207" stroke="#1D1D1B" stroke-width="0.1" stroke-miterlimit="10"/>
<path d="M53.8403 53.9275C53.8403 53.9275 55.3291 56.2816 51.1719 62.5499" stroke="#1D1D1B" stroke-width="0.1" stroke-miterlimit="10"/>
<path d="M51.9455 55.9268C51.9455 55.9268 51.3847 61.8307 47.6045 64.1849" stroke="#1D1D1B" stroke-width="0.1" stroke-miterlimit="10"/>
<path d="M48.7838 56.8328C48.7838 56.8328 50.1857 60.3359 44.0562 65.3338" stroke="#1D1D1B" stroke-width="0.1" stroke-miterlimit="10"/>
<path d="M46.1736 57.8511C46.1736 57.8511 46.0672 62.8209 39.1545 66.2306" stroke="#1D1D1B" stroke-width="0.1" stroke-miterlimit="10"/>
<path d="M60.2793 19.167C60.2793 19.167 61.7102 20.1199 64.0208 19.6995" stroke="#1D1D1B" stroke-width="0.1" stroke-miterlimit="10"/>
<path d="M63.1895 18.4383C63.1702 18.4102 61.4396 18.8026 59.7573 18.3635" stroke="#1D1D1B" stroke-width="0.1" stroke-miterlimit="10"/>
<path d="M61.0238 15.533C61.0238 15.533 61.2075 18.4009 60.3374 19.2697" stroke="#1D1D1B" stroke-width="0.1" stroke-miterlimit="10"/>
<path d="M58.9546 17.2613C58.9643 17.28 61.3619 17.1025 62.3481 17.1679" stroke="#1D1D1B" stroke-width="0.1" stroke-miterlimit="10"/>
<path d="M59.8444 14.2158C59.8444 14.2158 60.0667 16.5793 59.4189 17.8871" stroke="#1D1D1B" stroke-width="0.1" stroke-miterlimit="10"/>
<path d="M57.8428 15.9065C57.8428 15.9065 60.5208 15.7197 61.3233 15.9065" stroke="#1D1D1B" stroke-width="0.1" stroke-miterlimit="10"/>
<path d="M57.0503 15.0286C57.0503 15.0286 59.4383 14.5896 60.4341 14.8605" stroke="#1D1D1B" stroke-width="0.1" stroke-miterlimit="10"/>
<path d="M58.5969 12.9641C58.5969 12.9641 58.887 15.804 58.4712 16.6448" stroke="#1D1D1B" stroke-width="0.1" stroke-miterlimit="10"/>
<path d="M57.0503 11.5908C57.0503 11.5908 57.6884 14.3279 57.263 15.2528" stroke="#1D1D1B" stroke-width="0.1" stroke-miterlimit="10"/>
<path d="M56.0928 14.0756C56.0928 14.0756 58.9642 14.1316 59.4186 13.6646" stroke="#1D1D1B" stroke-width="0.1" stroke-miterlimit="10"/>
<path d="M55.3677 13.4219C55.3677 13.4219 57.485 13.1977 58.2391 12.6372" stroke="#1D1D1B" stroke-width="0.1" stroke-miterlimit="10"/>
<path d="M55.8901 10.6658C55.8901 10.6658 56.3735 13.0012 55.9771 13.9634" stroke="#1D1D1B" stroke-width="0.1" stroke-miterlimit="10"/>
<path d="M54.1787 12.4316C54.1787 12.4316 56.8954 12.3102 57.4562 11.9365" stroke="#1D1D1B" stroke-width="0.1" stroke-miterlimit="10"/>
<path d="M54.5269 9.68506C54.5269 9.68506 54.9909 12.4222 54.7106 12.8612" stroke="#1D1D1B" stroke-width="0.1" stroke-miterlimit="10"/>
<path d="M53.2214 11.7123C53.2214 11.7123 56.4892 11.5815 56.8083 11.2732" stroke="#1D1D1B" stroke-width="0.1" stroke-miterlimit="10"/>
<path d="M53.2214 8.82544C53.2214 8.82544 53.7049 11.0675 53.4245 11.8615" stroke="#1D1D1B" stroke-width="0.1" stroke-miterlimit="10"/>
<path d="M52.158 10.9928C52.158 10.9928 54.0336 10.9741 55.4548 10.3389" stroke="#1D1D1B" stroke-width="0.1" stroke-miterlimit="10"/>
<path d="M52.158 11.0957C52.4867 9.50762 51.5296 7.83545 51.5296 7.83545C51.5296 7.83545 49.6443 8.52674 49.0642 9.26473" stroke="#1D1D1B" stroke-width="0.1" stroke-miterlimit="10"/>
<path d="M51.1045 10.3391C51.1045 10.3391 53.2411 10.2643 53.9952 9.3208" stroke="#1D1D1B" stroke-width="0.1" stroke-miterlimit="10"/>
<path d="M50.2632 9.8718C50.2632 9.8718 51.2977 9.07776 53.3666 8.91895" stroke="#1D1D1B" stroke-width="0.1" stroke-miterlimit="10"/>
<path d="M50.041 7.06006C50.041 7.06006 50.9015 9.1059 50.8918 10.2269" stroke="#1D1D1B" stroke-width="0.1" stroke-miterlimit="10"/>
<path d="M47.7688 8.6855C47.7688 8.6855 48.7163 7.96619 50.4662 7.2749" stroke="#1D1D1B" stroke-width="0.1" stroke-miterlimit="10"/>
<path d="M46.5698 8.21844C46.5698 8.21844 47.817 7.17217 49.3156 6.70508" stroke="#1D1D1B" stroke-width="0.1" stroke-miterlimit="10"/>
<path d="M48.3198 6.25659C48.3198 6.25659 49.9828 8.94701 49.6637 9.55422" stroke="#1D1D1B" stroke-width="0.1" stroke-miterlimit="10"/>
<path d="M47.9427 6.08838C47.9427 6.08838 45.9898 7.34951 45.7771 7.97541" stroke="#1D1D1B" stroke-width="0.1" stroke-miterlimit="10"/>
<path d="M44.3752 7.40551C44.3752 7.40551 45.6031 5.92951 47.1016 5.74268" stroke="#1D1D1B" stroke-width="0.1" stroke-miterlimit="10"/>
<path d="M45.8738 5.27563C45.8738 5.27563 43.8242 6.08836 43.6501 7.15332" stroke="#1D1D1B" stroke-width="0.1" stroke-miterlimit="10"/>
<path d="M41.3491 6.76109C41.3491 6.76109 43.3117 4.9955 45.1583 5.02352" stroke="#1D1D1B" stroke-width="0.1" stroke-miterlimit="10"/>
<path d="M40.2954 6.84515C40.2954 6.84515 40.2568 5.45323 43.4279 4.48169" stroke="#1D1D1B" stroke-width="0.1" stroke-miterlimit="10"/>
<path d="M42.3546 6.85456C42.3546 6.85456 42.1709 5.29449 41.7842 5.14502" stroke="#1D1D1B" stroke-width="0.1" stroke-miterlimit="10"/>
<path d="M43.2249 7.03197C43.2249 7.03197 43.2539 4.50037 42.8188 4.67786" stroke="#1D1D1B" stroke-width="0.1" stroke-miterlimit="10"/>
<path d="M44.085 4.67798C44.085 4.67798 44.3073 6.77987 44.201 7.34972" stroke="#1D1D1B" stroke-width="0.1" stroke-miterlimit="10"/>
<path d="M44.9941 5.02368C44.9941 5.02368 45.4582 7.20965 45.2648 7.77016" stroke="#1D1D1B" stroke-width="0.1" stroke-miterlimit="10"/>
<path d="M46.2992 5.43457C46.2992 5.43457 46.4732 7.69527 46.2412 8.09697" stroke="#1D1D1B" stroke-width="0.1" stroke-miterlimit="10"/>
<path d="M47.2854 5.81763C47.2854 5.81763 47.6914 8.06899 47.4207 8.53607" stroke="#1D1D1B" stroke-width="0.1" stroke-miterlimit="10"/>
<path d="M40.9431 3.80908C40.9431 3.80908 40.9915 6.01373 41.1945 6.69568" stroke="#1D1D1B" stroke-width="0.1" stroke-miterlimit="10"/>
<path d="M54.6621 51.8818C54.6621 51.8818 55.3099 52.3396 55.5322 52.8534" stroke="#1D1D1B" stroke-width="0.1" stroke-miterlimit="10"/>
<path d="M24.6429 8.84428C24.6429 8.84428 24.1112 7.53644 25.3004 4.48169" stroke="#1D1D1B" stroke-width="0.1" stroke-miterlimit="10"/>
<path d="M24.5171 5.14502C24.5171 5.14502 28.1039 5.35988 29.3415 5.89236" stroke="#1D1D1B" stroke-width="0.1" stroke-miterlimit="10"/>
<path d="M30.6176 3.80908C30.5112 3.83711 27.8332 3.79974 28.0168 7.40565" stroke="#1D1D1B" stroke-width="0.1" stroke-miterlimit="10"/>
<path d="M25.9575 4.15479C25.9575 4.15479 27.8428 4.52845 28.6356 4.81805" stroke="#1D1D1B" stroke-width="0.1" stroke-miterlimit="10"/>
<path d="M30.2695 4.82742C30.2695 4.82742 30.9173 5.30386 31.217 4.5752" stroke="#1D1D1B" stroke-width="0.1" stroke-miterlimit="10"/>
<path d="M29.6894 5.25708C29.6894 5.25708 28.6646 6.67703 29.8151 7.95684" stroke="#1D1D1B" stroke-width="0.1" stroke-miterlimit="10"/>
<path d="M28.1328 3.51953C28.1328 3.51953 28.7612 3.65032 28.9353 4.49107" stroke="#1D1D1B" stroke-width="0.1" stroke-miterlimit="10"/>
<path d="M31.9324 5.96712C31.9324 5.96712 30.4821 6.50894 29.5347 2.875" stroke="#1D1D1B" stroke-width="0.1" stroke-miterlimit="10"/>
<path d="M29.8829 6.22872C29.8539 6.21003 31.014 7.2563 31.8842 6.00451C31.9132 5.9578 31.9905 5.94846 32.0195 5.99517C32.2322 6.35016 33.1604 6.91066 33.4794 5.89241C33.4794 5.89241 32.5706 5.8457 32.4449 4.81812" stroke="#1D1D1B" stroke-width="0.1" stroke-miterlimit="10"/>
<path d="M30.8595 2.24897C30.5018 4.05192 33.9049 2.18358 36.7184 2.80948C37.3081 2.94026 37.9269 2.92158 38.4876 2.71606C38.9904 2.52922 39.9572 2.56659 41.3397 2.22095" stroke="#1D1D1B" stroke-width="0.1" stroke-miterlimit="10"/>
<path d="M37.4529 1.99683C37.4529 1.99683 37.9072 2.43589 37.6462 2.87495" stroke="#1D1D1B" stroke-width="0.1" stroke-miterlimit="10"/>
<path d="M32.2031 3.06177C32.3965 3.54754 31.304 5.81758 40.653 3.81845" stroke="#1D1D1B" stroke-width="0.1" stroke-miterlimit="10"/>
<path d="M33.7887 4.56567C34.0207 4.61238 30.4145 6.25653 40.2953 6.406" stroke="#1D1D1B" stroke-width="0.1" stroke-miterlimit="10"/>
<path d="M39.0867 4.12671C39.0867 4.12671 40.9139 5.59336 40.3048 6.76108" stroke="#1D1D1B" stroke-width="0.1" stroke-miterlimit="10"/>
<path d="M40.8367 3.79053C40.9817 4.81812 39.0867 5.28521 39.019 6.38753" stroke="#1D1D1B" stroke-width="0.1" stroke-miterlimit="10"/>
<path d="M38.4487 4.23877C38.5261 5.11689 39.5799 6.10712 39.5122 6.37803" stroke="#1D1D1B" stroke-width="0.1" stroke-miterlimit="10"/>
<path d="M36.9212 4.50977L36.1768 5.25711" stroke="#1D1D1B" stroke-width="0.1" stroke-miterlimit="10"/>
<path d="M36.8921 5.44406L37.4528 5.02368" stroke="#1D1D1B" stroke-width="0.1" stroke-miterlimit="10"/>
<path d="M38.6807 4.95825L37.5688 5.89243" stroke="#1D1D1B" stroke-width="0.1" stroke-miterlimit="10"/>
<path d="M60.7529 19.4099C63.373 23.4175 64.8618 27.9576 64.8618 32.9928C64.8618 47.5846 52.187 59.4112 36.5634 59.4112C20.9397 59.4112 8.26489 47.5846 8.26489 33.0021C8.26489 20.5869 17.4399 10.1709 29.8054 7.34033" stroke="#1D1D1B" stroke-width="0.1" stroke-miterlimit="10"/>
<path d="M21.7711 19.559L23.2407 20.5586L24.3815 19.2134L24.4975 20.9416L26.2861 20.9696L24.9616 22.1373L26.0637 23.5106L24.2848 23.2303L23.8594 24.9118L22.9796 23.4078L21.3554 24.1365L22.0321 22.5297L20.4272 21.7543L22.1385 21.2592L21.7711 19.559Z" fill="white" stroke="#1D1D1B" stroke-width="0.25" stroke-miterlimit="10"/>
<path d="M43.215 26.5L43.4567 28.2189L45.255 28.1161L44.0174 29.3679L45.2066 30.6664L43.4277 30.5076L43.128 32.2171L42.1322 30.7692L40.5659 31.6099L41.117 29.9658L39.4541 29.3025L41.1363 28.6953L40.6433 27.0231L42.1805 27.9106L43.215 26.5Z" fill="white" stroke="#1D1D1B" stroke-width="0.25" stroke-miterlimit="10"/>
<path d="M42.1129 39.186L42.925 40.4659L44.3172 39.7932L43.7758 41.2039L45.197 41.8298L43.7178 42.3062L44.0949 43.7635L42.7897 42.9508L41.8422 44.1372L41.6972 42.6425L40.1406 42.6798L41.2525 41.6242L40.2566 40.4752L41.8035 40.662L42.1129 39.186Z" fill="white" stroke="#1D1D1B" stroke-width="0.25" stroke-miterlimit="10"/>
<path d="M51.607 41.6616L52.4191 42.9508L53.8016 42.2688L53.2699 43.6794L54.6911 44.3053L53.2119 44.7818L53.5889 46.2391L52.2837 45.4263L51.3363 46.6221L51.1816 45.1181L49.625 45.1554L50.7465 44.0998L49.7507 42.9508L51.2879 43.1376L51.607 41.6616Z" fill="white" stroke="#1D1D1B" stroke-width="0.25" stroke-miterlimit="10"/>
<path d="M60.1825 31.4417L59.9021 33.1513L61.6424 33.553L60.0858 34.4124L60.8399 35.9818L59.177 35.3372L58.3843 36.888L57.8622 35.2251L56.1123 35.5895L57.1371 34.1695L55.7449 33.0672L57.5335 32.9551L57.5625 31.2175L58.771 32.5067L60.1825 31.4417Z" fill="white" stroke="#1D1D1B" stroke-width="0.25" stroke-miterlimit="10"/>
<path d="M34.4557 21.4646L34.9391 23.1368L36.6987 22.8005L35.6545 24.2017L37.0177 25.3321L35.2292 25.4162L35.1711 27.1444L33.982 25.8459L32.5511 26.8828L32.8605 25.1733L31.1299 24.7342L32.7058 23.9121L31.9807 22.324L33.6339 23.006L34.4557 21.4646Z" fill="white" stroke="#1D1D1B" stroke-width="0.25" stroke-miterlimit="10"/>
<path d="M11.4167 26.8176L13.2053 26.6775V24.9399L14.4332 26.2011L15.8351 25.1174L15.574 26.8363L17.3239 27.2193L15.7771 28.0975L16.5602 29.6575L14.8876 29.0316L14.1141 30.601L13.5727 28.9476L11.8228 29.3306L12.8283 27.8919L11.4167 26.8176Z" fill="white" stroke="#1D1D1B" stroke-width="0.25" stroke-miterlimit="10"/>
<path d="M35.877 4.1265C36.3949 4.1265 36.8148 3.80027 36.8148 3.39785C36.8148 2.99542 36.3949 2.66919 35.877 2.66919C35.3591 2.66919 34.9392 2.99542 34.9392 3.39785C34.9392 3.80027 35.3591 4.1265 35.877 4.1265Z" fill="white" stroke="#1D1D1B" stroke-width="0.1" stroke-miterlimit="10"/>
<path d="M36.2348 3.32311C36.2542 3.66876 36.1091 4.0144 35.8771 4.13584C35.645 4.0144 35.4904 3.66876 35.5194 3.32311C35.5387 3.02418 35.6837 2.77195 35.8771 2.66919C36.0705 2.77195 36.2155 3.02418 36.2348 3.32311Z" fill="#F8EF1C" stroke="#1D1D1B" stroke-width="0.1" stroke-miterlimit="10"/>
</svg>
